<?xml version="1.0" encoding="UTF-8"?><svg xmlns="http://www.w3.org/2000/svg" xmlns:xlink="http://www.w3.org/1999/xlink" viewBox="0 0 600 300"><defs><linearGradient id="_ÂÁ_Ï_ÌÌ_È_ËÂÌÚ_3" x1="392.51" y1="347.82" x2="493.82" y2="-29.01" gradientUnits="userSpaceOnUse"><stop offset=".13" stop-color="#c83be2"/><stop offset=".77" stop-color="#09c7f9"/></linearGradient><linearGradient id="_ÂÁ_Ï_ÌÌ_È_ËÂÌÚ_37" x1="0" y1="286" x2="600" y2="286" gradientUnits="userSpaceOnUse"><stop offset=".13" stop-color="#5a1fab"/><stop offset=".64" stop-color="#c83be2"/></linearGradient><linearGradient id="_ÂÁ_Ï_ÌÌ_È_ËÂÌÚ_3-2" x1="478.45" y1="172" x2="533.09" y2="172" xlink:href="#_ÂÁ_Ï_ÌÌ_È_ËÂÌÚ_3"/></defs><g style="isolation:isolate;"><g id="_ÎÓÈ_1"><rect width="600" height="300" style="fill:#5a1fab; stroke-width:0px;"/><path d="M600,0v300H219.77c-3.55-8.72-3.47-20.42-1.19-29.18,2.41-9.28,9.3-16.76,16.51-22.62,6.58-5.34,14-9.59,21.36-13.81,0-2.75,25.14-14.11,28.12-15.79,7.38-4.18,15.57-9.45,16.96-17.93,1.1-6.68-2.47-13.12-4-19.71-4.36-18.81,6.95-31.29,23.48-38.74,8.03-3.61,16.22-6.53,24.87-7.79,9.89-1.44,19.64-9.65,26.47-16.38,13.56-13.37,22.69-30.57,30.17-47.77,10.74-24.68,20.12-51.36,39.02-70.28h158.46Z" style="fill:url(#_ÂÁ_Ï_ÌÌ_È_ËÂÌÚ_3); stroke-width:0px;"/><path d="M485.09,0v274.03h1.6V0h-1.6ZM448.7,0v274.03h1.61V0h-1.61Z" style="fill:#50e6ff; stroke-width:0px;"/><path d="M479.92,83.3c-.78-1.95-1.06-3.88-1.19-5.96-.12-1.95-.22-3.91-.83-5.78-.61-1.9-1.53-3.66-1.94-5.63-.41-1.97-.55-3.99-.99-5.96-.43-1.93-1.39-3.64-1.93-5.52-.58-2.02-.63-4.16-.69-6.24,0-.32-.58-.43-.99-.34-.24-.01-.49.05-.68.18-1.24.88-2.13,2.1-2.72,3.47-.6-1.36-1.48-2.58-2.72-3.47-.19-.13-.44-.19-.68-.18-.41-.09-.98.02-.99.34-.06,2.09-.11,4.22-.68,6.24-.54,1.89-1.49,3.59-1.93,5.52-.44,1.97-.58,3.99-.99,5.96-.41,1.97-1.33,3.73-1.94,5.63-.61,1.87-.7,3.83-.83,5.78-.13,2.09-.41,4.01-1.19,5.96-.27.68-.96,1.62-.36,2.28.7.77,2.69.99,3.66,1.14,2.79.44,5.63.22,8.43.21,3.85-.01,7.77.4,11.48-.63,1.9-.53,1.25-1.59.69-2.99Z" style="fill:#fce36c; stroke-width:0px;"/><path d="M472.6,55.14c-.03-.08-.19-.08-.26-.07-2.36.3-4.74.4-7.11.3-.68-.03-1.36-.08-2.04-.14-.07,0-.22,0-.26.07-.03.08.09.13.15.13,2.42.22,4.86.24,7.29.06.7-.05,1.39-.13,2.09-.21.06,0,.18-.05.15-.13Z" style="fill:#ffa1dd; stroke-width:0px;"/><path d="M463.52,66.46c-.85-.29-1.74-.41-2.64-.35-.06,0-.21.02-.21.11,0,.09.15.11.21.11.82-.05,1.64.05,2.42.32.08.03.22.03.29-.04.07-.07,0-.12-.08-.15Z" style="fill:#ffa1dd; stroke-width:0px;"/><path d="M475.69,66.25c-1.32-.07-2.62.25-3.92.42-1.31.17-2.64.25-3.96.26-.76,0-1.52-.03-2.28-.08-.07,0-.22-.01-.26.07-.03.08.09.13.15.13,1.34.1,2.68.11,4.01.04,1.34-.07,2.67-.24,3.99-.45.75-.12,1.51-.22,2.27-.18.06,0,.21-.02.21-.11,0-.09-.15-.1-.21-.11Z" style="fill:#ffa1dd; stroke-width:0px;"/><path d="M461.13,79.33c-.76-.05-1.53-.06-2.29-.04-.06,0-.21.02-.21.11,0,.09.15.11.21.11.76-.03,1.53-.01,2.29.04.06,0,.21-.02.21-.11,0-.09-.15-.1-.21-.11Z" style="fill:#ffa1dd; stroke-width:0px;"/><path d="M477,79.06c-.08-.05-.22-.04-.3,0-2.23,1.13-4.86.87-7.27.79-.78-.03-1.56-.05-2.34-.08-.06,0-.21.02-.21.11s.15.11.21.11c1.39.05,2.78.11,4.17.14,1.26.03,2.53.02,3.77-.23.68-.14,1.34-.36,1.97-.68.08-.04.07-.11,0-.15Z" style="fill:#ffa1dd; stroke-width:0px;"/><path d="M474.21,62.21c-.63-1.65-.98-3.41-1.9-4.93-.08-.12-.49-.07-.41.06.93,1.52,1.28,3.29,1.9,4.93.05.13.47.1.41-.06Z" style="fill:#ffa1dd; stroke-width:0px;"/><path d="M463.08,63.16c-.13.66-.22,1.33-.26,2,0,.14.41.15.42,0,.04-.67.13-1.34.26-2,.03-.13-.39-.16-.42,0Z" style="fill:#ffa1dd; stroke-width:0px;"/><path d="M467.38,65.01c-.06,0-.21.02-.21.11v1.05c0,.09.15.11.21.11.06,0,.21-.02.21-.11v-1.05c0-.09-.15-.11-.21-.11Z" style="fill:#ffa1dd; stroke-width:0px;"/><path d="M462.82,69.75c-.64,2.44-.93,4.97-.85,7.5,0,.15.43.15.42,0-.08-2.53.21-5.06.85-7.5.03-.12-.38-.15-.42,0Z" style="fill:#ffa1dd; stroke-width:0px;"/><path d="M470.98,70.71c-.01-.15-.43-.14-.42,0,.08.92.11,1.85.1,2.77,0,.15.42.15.42,0,.02-.92-.01-1.85-.1-2.77Z" style="fill:#ffa1dd; stroke-width:0px;"/><path d="M476.11,69.22c-.14-.61-.37-1.2-.69-1.74-.07-.12-.48-.08-.41.06.31.52.54,1.09.68,1.69.04.15.45.13.42,0Z" style="fill:#ffa1dd; stroke-width:0px;"/><path d="M477.22,84.44c-.25-.84-.51-1.69-.77-2.53-.04-.13-.46-.11-.41.06l.77,2.53c.04.13.46.11.41-.06Z" style="fill:#ffa1dd; stroke-width:0px;"/><path d="M465.21,82.07c0-.15-.42-.15-.42,0-.02.69-.02,1.37.02,2.05,0,.15.43.15.42,0-.04-.68-.05-1.37-.02-2.05Z" style="fill:#ffa1dd; stroke-width:0px;"/><path d="M459.2,81.71c-.19.54-.41,1.07-.66,1.58-.07.14.34.19.41.06.25-.51.47-1.04.66-1.58.05-.16-.36-.19-.41-.06Z" style="fill:#ffa1dd; stroke-width:0px;"/><path d="M472.51,106.64c-.72-.21-1.51-.7-2.29-.56-.19.03-.35.11-.49.22,0,0,0,0,0,0-.36.23-.6.61-.95.87,0,0,0,0,0,0-.33.21-.74.3-1.17.34-.42-.05-.83-.13-1.16-.34h0c-.35-.25-.59-.64-.95-.86,0,0,0,0-.01,0-.14-.1-.3-.18-.49-.22-.77-.14-1.57.34-2.29.56-.85.25-1.69.52-2.53.81v4.4c.86-.15,1.72-.34,2.56-.57v7.62h9.74v-7.62c.84.23,1.7.42,2.56.57v-4.4c-.83-.29-1.68-.56-2.53-.81Z" style="fill:#50e6ff; stroke-width:0px;"/><path d="M471.99,121.08h-8.77s-.01.04-.01.06c-.77,7.44-1.53,14.88-2.3,22.32-.01.14.19.22.29.25,1.63.5,3.33.61,5.01.33.16-.03.4-.09.42-.28.39-2.79.7-5.6.98-8.4.28,2.81.59,5.61.98,8.41.03.19.26.26.42.28,1.68.28,3.38.17,5.01-.33.1-.03.3-.11.29-.25-.76-7.44-1.53-14.88-2.29-22.32,0-.02,0-.04-.02-.06Z" style="fill:#fff; stroke-width:0px;"/><path d="M476.35,247.89c-.14-2.68-.44-5.18-1.9-7.52-.52-.84-1.1-1.53-1.16-2.54-.05-.87.14-1.7.34-2.54.23-1,.61-1.95.89-2.94.35-1.22.55-2.49.59-3.76.02-.56.27-2.55-.42-2.75-.1-.06-.24-.1-.44-.1h-1.44v-6.65c0-.47-1.33-.47-1.33,0v6.65h-7.46v-6.65c0-.47-1.33-.47-1.33,0v6.65h-1.44c-.19,0-.34.04-.44.1-.69.2-.44,2.19-.42,2.75.04,1.27.24,2.54.59,3.76.28.98.66,1.94.89,2.94.2.84.39,1.67.34,2.54-.06,1.01-.64,1.7-1.16,2.54-1.46,2.34-1.76,4.84-1.9,7.52-.16,3.13.06,6.33.29,9.45-.06.19.13.41.59.41h15.43c.46,0,.65-.22.59-.41.22-3.12.45-6.32.29-9.45Z" style="fill:#fce36c; stroke-width:0px;"/><path d="M461,18.35c.28.98.66,1.94.89,2.94.11.47.21.93.28,1.4h11.19c.07-.47.17-.93.28-1.4.23-1,.61-1.95.89-2.94.35-1.22.55-2.49.59-3.76.02-.56.27-2.55-.42-2.75-.1-.06-.24-.1-.44-.1h-1.44v-6.65c0-.47-1.33-.47-1.33,0v6.65h-7.46v-6.65c0-.47-1.33-.47-1.33,0v6.65h-1.44c-.19,0-.34.04-.44.1-.69.2-.44,2.19-.42,2.75.04,1.27.24,2.54.59,3.76Z" style="fill:#fff; stroke-width:0px;"/><rect x="449.51" y="96.59" width="36.38" height="1.61" style="fill:#50e6ff; stroke-width:0px;"/><rect x="449.51" y="210.57" width="36.38" height="1.61" style="fill:#50e6ff; stroke-width:0px;"/><rect x="449.51" y="153.58" width="36.38" height="1.61" style="fill:#50e6ff; stroke-width:0px;"/><rect x="449.51" y="39.43" width="36.38" height="1.61" style="fill:#50e6ff; stroke-width:0px;"/><rect x="449.51" y="267.56" width="36.38" height="1.61" style="fill:#50e6ff; stroke-width:0px;"/><path d="M478.77,172.59c-1.19-2.92-2.34-5.85-3.46-8.8-.47-1.25-.64-2.2-1.99-2.65-.96-.32-2.03-.04-3.01-.04-.21,0-.69.06-.72.34-.75,2.06-1.94,3.93-3.44,5.48-1.38,1.42-3.02,2.58-4.85,3.37-.4.17-.81.33-1.23.47-.44.14-.4.34-.19.48,0,.02-.01.04-.02.06-1.37,9.38-2.46,18.79-3.27,28.23,0,.05,0,.1.03.14,0,.19.21.38.66.38h17.73c.44,0,.66-.19.66-.38.03-.04.04-.09.03-.14-.7-8.04-1.59-16.06-2.69-24.06.18-.04.35-.08.52-.12.61-.16,1.2-.36,1.78-.59,1.19-.47,2.3-1.08,3.35-1.81.07-.05.1-.1.1-.16.03-.06.04-.13,0-.21Z" style="fill:#ffa1dd; stroke-width:0px;"/><path d="M471.99,168.05c-.01-.11-.32-.1-.31,0,.31,2.31.67,4.61,1.07,6.9.02.11.33.1.31,0-.41-2.29-.76-4.59-1.07-6.9Z" style="fill:#5a1fab; stroke-width:0px;"/><path d="M470.86,207.64h-7c-.99,0-1.79-.8-1.79-1.79h0c0-.99.8-1.79,1.79-1.79h7c.99,0,1.79.8,1.79,1.79h0c0,.99-.8,1.79-1.79,1.79Z" style="fill:#50e6ff; stroke-width:0px;"/><path d="M470.86,150.3h-7c-.99,0-1.79-.8-1.79-1.79h0c0-.99.8-1.79,1.79-1.79h7c.99,0,1.79.8,1.79,1.79h0c0,.99-.8,1.79-1.79,1.79Z" style="fill:#50e6ff; stroke-width:0px;"/><path d="M470.86,92.61h-7c-.99,0-1.79-.8-1.79-1.79h0c0-.99.8-1.79,1.79-1.79h7c.99,0,1.79.8,1.79,1.79h0c0,.99-.8,1.79-1.79,1.79Z" style="fill:#50e6ff; stroke-width:0px;"/><path d="M470.86,35.61h-7c-.99,0-1.79-.8-1.79-1.79h0c0-.99.8-1.79,1.79-1.79h7c.99,0,1.79.8,1.79,1.79h0c0,.99-.8,1.79-1.79,1.79Z" style="fill:#50e6ff; stroke-width:0px;"/><path d="M470.86,264.13h-7c-.99,0-1.79-.8-1.79-1.79h0c0-.99.8-1.79,1.79-1.79h7c.99,0,1.79.8,1.79,1.79h0c0,.99-.8,1.79-1.79,1.79Z" style="fill:#50e6ff; stroke-width:0px;"/><rect y="272" width="600" height="28" style="fill:#5a1fab; stroke-width:0px;"/><path d="M600,275.15h-12.94l-2.59-3.15h-.91l2.59,3.15h-71.03l-1.95-3.15h-.82l1.94,3.15h-71.11l-1.3-3.15h-.75l1.3,3.15h-71.17l-.65-3.15h-.72l.65,3.15h-71.19v-3.15h-.7v3.15h-71.19l.65-3.15h-.72l-.65,3.15h-71.17l1.3-3.15h-.75l-1.3,3.15h-71.11l1.94-3.15h-.82l-1.95,3.15H11.85l2.59-3.15h-.91l-2.59,3.15H0v.7h10.36l-10.36,12.59v1.11l11.27-13.7h71.18l-9.44,15.3H0v.7h72.58l-5.03,8.15h.82l5.03-8.15h74.55l-3.36,8.15h.76l3.35-8.15h74.61l-1.68,8.15h.71l1.68-8.15h74.63v8.15h.7v-8.15h74.63l1.68,8.15h.71l-1.68-8.15h74.61l3.35,8.15h.76l-3.36-8.15h74.55l5.03,8.15h.82l-5.03-8.15h74.48l.1.12v-1.1l-12.36-15.02h12.36v-.7ZM148.23,291.15h-74.4l9.44-15.3h71.26l-6.3,15.3ZM223.45,291.15h-74.46l6.3-15.3h71.31l-3.15,15.3ZM298.65,291.15h-74.49l3.15-15.3h71.34v15.3ZM299.35,291.15v-15.3h71.34l3.15,15.3h-74.49ZM374.55,291.15l-3.15-15.3h71.31l6.3,15.3h-74.46ZM449.77,291.15l-6.3-15.3h71.26l9.44,15.3h-74.4ZM599.32,291.15h-74.33l-9.44-15.3h71.18l12.59,15.3Z" style="fill:url(#_ÂÁ_Ï_ÌÌ_È_ËÂÌÚ_37); stroke-width:0px;"/><polygon points="441 272 387.17 300 126 300 238 272 441 272" style="fill:#5a1fab; mix-blend-mode:multiply; opacity:.4; stroke-width:0px;"/><polygon points="182 272 182 278 98 300 0 300 0 281.76 40 272 182 272" style="fill:#5a1fab; mix-blend-mode:multiply; opacity:.4; stroke-width:0px;"/><polygon points="582.58 282.88 574.16 300 445.73 300 495 280 580 280 582.58 282.88" style="fill:#5a1fab; mix-blend-mode:multiply; opacity:.4; stroke-width:0px;"/><path d="M298.13,226.99c.6-.46,1.24-.78,1.75-.68-.83-.17-1.67-.42-2.35-.93-1.43-1.09-1.77-3.06-2-4.85-.1,2.42-1.43,5.15-4.09,5.49,1.45.08,2.68,1.19,3.3,2.5s.72,2.8.74,4.25c.45-1.97.98-4.49,2.65-5.78Z" style="fill:#fff; stroke-width:0px;"/><path d="M288.17,247.5c.41-.32.86-.54,1.21-.47-.58-.12-1.16-.29-1.63-.65-.99-.75-1.22-2.12-1.38-3.35-.07,1.68-.99,3.56-2.83,3.8,1,.06,1.86.82,2.28,1.73.43.91.5,1.94.52,2.94.31-1.37.68-3.11,1.83-4Z" style="fill:#fff; stroke-width:0px;"/><rect x="487" y="33.26" width="113" height="1.74" style="fill:#50e6ff; stroke-width:0px;"/><polygon points="550.02 78.91 550.02 43.28 566.24 43.28 582.46 43.28 582.46 78.91 588.17 156.88 571.95 156.88 566.24 78.91 560.53 156.88 544.32 156.88 550.02 78.91" style="fill:#33d9ff; stroke-width:0px;"/><path d="M551.54,49.26h6.26c-.15.83-.31,1.67-.49,2.5-.32,1.45-.74,2.88-1.38,4.21-.59,1.22-1.37,2.36-2.39,3.27-.1.09.18.13.25.07.57-.51,1.08-1.09,1.51-1.72.81-1.17,1.37-2.48,1.79-3.84.45-1.47.73-2.98,1.01-4.49h6.38v8.95c0,.1.29.1.29,0v-.04c1.37-.45,2.59-1.28,3.51-2.39.02-.03,0-.05-.03-.06.04-.01.07-.03.07-.07v-6.39h6.93c.01.8.13,1.59.31,2.36.33,1.39.87,2.73,1.46,4.02.51,1.12,1.08,2.32,2.15,3.02.06.04.13.05.2.03.03-.01.11-.06.05-.1-.58-.38-1.02-.92-1.37-1.51-.33-.55-.59-1.13-.86-1.71-.29-.65-.57-1.31-.81-1.98-.48-1.33-.81-2.71-.84-4.13h6.1c.17,0,.17-.14,0-.14h-13.32v-5.21c0-.1-.29-.1-.29,0v5.21h-3.26v-5.01c0-.1-.29-.1-.29,0v5.01h-6.39c-.05-.03-.16-.03-.22,0h-6.32c-.17,0-.17.14,0,.14ZM564.75,49.26h3.26v6.39s.01.04.03.05c-.02,0-.05.02-.06.04-.85,1.03-1.98,1.82-3.23,2.26v-8.74Z" style="fill:#09c7f9; stroke-width:0px;"/><path d="M565.55,46.05c.03-.15.11-.3.23-.42.34-.33.97-.28,1.3.04.35.33.33.9.03,1.25-.14.17-.35.29-.59.32-.26.02-.52-.07-.71-.23-.29-.25-.4-.63-.27-.96Z" style="fill:#09c7f9; stroke-width:0px;"/><path d="M566.28,67.05v11.44c0,.1-.29.1-.29,0v-11.44c0-.1.29-.1.29,0Z" style="fill:#09c7f9; stroke-width:0px;"/><path d="M565.8,39.55s0,.05,0,.07c.02.29.04.57.02.84,0,.02,0,.04,0,.06.1-.01.2-.02.3-.03h0c.09,0,.18.02.27.03,0,0,0-.02,0-.03.02-.3,0-.61-.03-.91,0-.01,0-.03,0-.04-.06-.86-.1-1.6.65-2.06.17-.1.36-.17.57-.25.29-.1.58-.21.85-.42.08-.06.15-.13.21-.2.53-.55.78-1.4.62-2.19-.13-.68-.61-1.28-1.15-1.68-.18-.14-.37-.25-.55-.34-.69-.33-1.57-.35-2.25-.05-.22.1-.4.23-.54.39h1.3c.19-.03.4-.03.59,0,.23.03.45.09.65.19.59.28,1.24.89,1.38,1.6.13.68-.12,1.41-.63,1.82-.14.11-.31.19-.49.26-.06.02-.13.05-.19.07-.23.08-.46.16-.68.3-1.03.64-.99,1.65-.93,2.56Z" style="fill:#fff; stroke-width:0px;"/><rect x="549.38" y="40.42" width="33.73" height=".91" transform="translate(1132.48 81.76) rotate(180)" style="fill:#fff; stroke-width:0px;"/><path d="M578.96,37.96h2.21v5.74c0,.49-.39.88-.88.88h-.45c-.49,0-.88-.39-.88-.88v-5.74h0Z" transform="translate(1160.12 82.53) rotate(180)" style="fill:#50e6ff; stroke-width:0px;"/><path d="M551.97,37.96h2.21v5.74c0,.49-.39.88-.88.88h-.45c-.49,0-.88-.39-.88-.88v-5.74h0Z" transform="translate(1106.15 82.53) rotate(180)" style="fill:#50e6ff; stroke-width:0px;"/><path d="M509.72,127.53h34.56c-.05-.75-.12-1.74-.21-2.94-.02-.3-.04-.6-.06-.92-.09-1.23-.18-2.63-.29-4.14-.01-.31-.03-.63-.04-.94-.01-.31-.02-.62-.03-.92-.05-1.54-.1-3.08-.14-4.62,0-.34-.02-.68-.03-1.02,0-.31-.01-.62-.02-.92-.05-1.88-.09-3.76-.15-5.63,0-.31-.02-.62-.03-.92-.06-1.88-.14-3.76-.24-5.64-.02-.31-.04-.62-.05-.92-.07-1.24-.16-2.47-.27-3.7-.06-.65-.12-1.29-.18-1.93-.03-.31-.06-.62-.1-.92-.2-1.86-.45-3.72-.76-5.56-.21-1.28-.29-2.16-.69-2.71-.05-.46-.1-.7-.12-.7-.1,0-.2,0-.3,0-.31,0-.61,0-.92,0-.19,0-.37,0-.56,0-.01,0-.02,0-.04,0-1.68-.03-3.36-.02-5.04-.01-.31,0-.62,0-.92,0-.64,0-1.29,0-1.93,0h-8.29c-.66,0-1.32,0-1.98,0-.31,0-.62,0-.92,0-1.67,0-3.33-.02-5,.01-.01,0-.02,0-.04,0-.2,0-.4,0-.6,0-.31,0-.62,0-.92,0-.09,0-.17,0-.26,0-.03,0-.07.25-.12.7-.4.55-.48,1.44-.69,2.71-.3,1.83-.55,3.67-.75,5.52-.03.31-.07.62-.1.92-.07.66-.13,1.32-.18,1.97-.1,1.22-.19,2.44-.27,3.66-.02.31-.04.62-.05.92-.11,1.88-.18,3.76-.24,5.63-.01.31-.02.62-.03.92-.06,1.88-.1,3.76-.15,5.64,0,.31-.01.62-.02.92,0,.35-.02.71-.03,1.06-.04,1.53-.08,3.05-.14,4.58-.01.31-.02.62-.03.92-.01.33-.02.65-.04.98-.1,1.5-.2,2.88-.29,4.1-.02.32-.04.63-.06.92-.08,1.22-.16,2.23-.21,2.98Z" style="fill:#09c7f9; stroke-width:0px;"/><path d="M524.26,65.95s.04.02.06.03c.4.18.88.11,1.26-.1.38-.21.69-.54.97-.87.59-.7,1.1-1.46,1.6-2.23,2.94-4.5,5.53-9.24,7.72-14.15.34-.77.68-1.57.81-2.41.07-.42.07-.85,0-1.27-.02-.14-.15-.94-.29-.94-.37-.03-.71.18-1.03.36-.5.29-1.03.54-1.57.76-4.74,1.95-10.34,1.73-14.91-.6-.21-.11-.43-.22-.66-.24-.24-.02-.5.09-.59.31-.18.44-.26,1.16-.17,1.62.12.6.3,1.18.42,1.78.1.49.04.97.19,1.45.38,1.24.78,2.46,1.19,3.69.81,2.46,1.65,4.9,2.5,7.34.46,1.32.92,2.64,1.39,3.95.21.6.49,1.21,1.09,1.53Z" style="fill:#50e6ff; stroke-width:0px;"/><path d="M516.55,45.34c1.19-.75,2.3-1.63,3.29-2.63.15-.15.3-.3.45-.46.54-.56,1.09-1.13,1.76-1.58,1.45-.99,3.2-1.26,4.81-1.44.04,0,.07,0,.11-.01.07,0,.14-.02.22-.02.07,0,.14.02.22.02,0,0,.01,0,.02,0,1.63.18,3.42.44,4.9,1.45.67.45,1.22,1.03,1.76,1.58.15.15.3.31.45.46.81.81,1.69,1.54,2.63,2.19v1.11c-1.18-.76-2.29-1.65-3.28-2.65-.15-.15-.31-.31-.46-.47-.53-.55-1.02-1.06-1.61-1.46-1.26-.86-2.87-1.11-4.36-1.28-.09,0-.17-.02-.26-.03h0c-.1.01-.19.02-.29.03-1.48.17-3.07.43-4.32,1.28-.59.4-1.09.91-1.61,1.46-.15.16-.3.31-.46.47-1.18,1.18-2.51,2.21-3.95,3.06v-1.08Z" style="fill:#fff; stroke-width:0px;"/><path d="M526.86,39.23s0,.04,0,.06c.02.28.04.55.02.8,0,.02,0,.04,0,.06.1-.01.19-.02.29-.03h0c.08,0,.17.02.26.03,0,0,0-.02,0-.03.01-.29,0-.58-.02-.87,0-.01,0-.02,0-.04-.06-.82-.09-1.53.62-1.97.16-.1.35-.17.54-.24.27-.1.56-.2.81-.4.07-.06.14-.12.2-.19.51-.53.74-1.34.6-2.09-.13-.65-.59-1.22-1.1-1.61-.17-.13-.35-.24-.52-.32-.66-.32-1.5-.34-2.15-.05-.21.09-.39.22-.52.37h1.24c.19-.02.38-.02.57,0,.22.03.43.09.62.18.56.27,1.19.85,1.32,1.53.13.65-.12,1.35-.6,1.74-.14.11-.3.18-.47.25-.06.02-.12.04-.18.07-.22.08-.44.16-.65.29-.99.61-.94,1.58-.89,2.45Z" style="fill:#fff; stroke-width:0px;"/><path d="M537.08,60.99c.17,1.31.96,2.62,1.28,3.93.29,1.18.54,2.38.77,3.58.3,1.57.57,3.15.83,4.73.52,3.11,1.04,6.23,1.81,9.29.58,2.31,1.15,4.62,1.76,6.92.38,1.43.5,3.11,1.45,4.31.13.16.26.3.4.41.32.27.68.42,1.13.56.7.23,1.92.13,2.45.73.62.7.8,2.44,1.08,3.34.07.24.15.48.22.72.69,2.27,1.39,4.54,2.08,6.81.33,1.06,2.01.48,2.82.33,1.13-.22,3.87-1.01,4-2.38.08-.89-.54-2.2-.79-3.05-.14-.45-.28-.9-.41-1.36-.16-.51-.31-1.02-.46-1.54-.25-.88-.43-1.79-.72-2.65-.06-.18-.15-.38-.24-.58-.18-.43-.34-.88-.21-1.31.17-.51.81-.66,1.21-1.02.69-.62.56-1.71.33-2.61-.42-1.62-.91-3.22-1.41-4.82-.52-1.65-1.03-3.31-1.54-4.96-1.01-3.31-1.99-6.63-2.88-9.98-.81-3.04-1.34-6.7-2.15-10.28-.38-1.67-.82-3.33-1.38-4.89-.91-2.56-2.13-4.88-3.92-6.67-.86-.86-1.69-1.2-2.47-1.19h0c-.2,0-.39.03-.58.07-.76.19-1.45.72-2.03,1.42-.81.99-1.37,2.33-1.58,3.57-.43,2.59-1.18,5.96-.85,8.57Z" style="fill:#50e6ff; stroke-width:0px;"/><path d="M495.05,104.27c.13,1.37,2.87,2.16,4,2.38.8.16,2.49.74,2.82-.33.69-2.27,1.39-4.54,2.08-6.81.07-.24.15-.48.22-.72.27-.9.45-2.64,1.07-3.34.53-.6,1.75-.5,2.45-.73.45-.15.8-.3,1.13-.57.14-.11.27-.25.4-.41.96-1.2,1.07-2.88,1.45-4.31.61-2.3,1.17-4.61,1.76-6.92.83-3.28,1.36-6.64,1.92-9.97.27-1.61.55-3.22.87-4.81.19-.94.4-1.88.62-2.82.32-1.31,1.11-2.62,1.28-3.93.33-2.61-.41-5.98-.85-8.57-.27-1.6-1.14-3.37-2.34-4.33-.55-.45-1.18-.72-1.85-.73h0c-.69,0-1.43.26-2.18.93-.09.08-.19.17-.29.27-2.18,2.18-3.52,5.15-4.47,8.37-.26.87-.49,1.75-.7,2.65-.88,3.75-1.43,7.63-2.28,10.83-.89,3.35-1.87,6.67-2.88,9.98-.51,1.66-1.02,3.31-1.54,4.96-.5,1.6-.99,3.2-1.41,4.82-.23.89-.36,1.99.33,2.61.4.36,1.05.51,1.21,1.02.2.63-.25,1.32-.45,1.89-.29.86-.47,1.77-.72,2.65-.28.97-.58,1.93-.87,2.9-.25.85-.88,2.16-.79,3.05Z" style="fill:#50e6ff; stroke-width:0px;"/><path d="M544.16,51.86c-.26,3.83-.2,7.72-.19,11.56,0,2.66-.21,5.51.12,8.15.31,2.48.39,5.11.2,7.63-.15,2-.66,5.09-2.32,6.48-.85.71-2.98.32-4.06.32h-19.99c-1.58,0-3.16,0-4.74,0-1.4,0-1.9-.69-2.32-2-1.02-3.2-.94-6.54-.82-9.84.12-3.57.19-7.15.2-10.73,0-3.84.07-7.73-.19-11.56-.04-.63-.07-1.14-.06-1.57-.16-.38-.26-.72-.23-.99.03-.28.21-.55.48-.8.47-.44,1.21-.83,1.85-1.15.11-.05.21-.11.31-.16.18-.11.36-.22.56-.34.5-.3.98-.62,1.45-.94,1-.68,1.95-1.39,2.94-2.08,1.23-.87,1.21.46,1.55,1.42.58,1.65,1.21,3.28,1.87,4.89.77,1.74,1.47,3.51,2.27,5.24.4.87.81,1.73,1.23,2.59.41.84.79,1.7,1.22,2.54.04.08.08.15.12.23.12.23.25.47.42.66.25.27.63.46,1,.38.4-.09.76-.32,1.04-.62.24-.27.42-.58.61-.89,1.89-3.25,3.78-6.52,5.24-10,.66-1.56,1.59-3.46,1.71-5.16.02-.32-.3-1.31-.04-1.55.32-.28,1.45.6,1.69.78.04.03.07.05.11.08.17.14.35.29.58.43,1.08.68,2.18,1.33,3.27,1.99.14.08.27.16.39.24.06.04.11.07.17.1.1.05.2.1.31.16,1,.5,2.25,1.18,2.34,1.95.03.27-.07.61-.23.99,0,.42-.02.93-.06,1.57Z" style="fill:#50e6ff; stroke-width:0px;"/><path d="M518.65,45.11c.02.07.04.14.07.21.52,1.48,1.13,3.08,1.87,4.91.31.71.62,1.43.92,2.15.43,1.02.88,2.07,1.35,3.09.4.87.81,1.73,1.23,2.59.18.36.35.73.52,1.09.23.49.46.97.7,1.45l.12.23c.14.27.27.5.45.71.33.36.79.53,1.19.44.42-.09.83-.33,1.14-.68.26-.28.45-.61.63-.93,1.86-3.2,3.78-6.51,5.25-10.02.1-.24.2-.48.31-.73.61-1.41,1.31-3.02,1.42-4.5,0-.13-.02-.32-.06-.55-.03-.19,0-.88-.25-.9-.39-.03-.17.8-.14.97.03.18.06.36.06.45-.1,1.41-.78,2.98-1.38,4.37-.11.25-.22.5-.32.73-1.46,3.49-3.38,6.78-5.23,9.97-.17.3-.35.61-.58.86-.26.29-.59.49-.93.56-.26.06-.58-.07-.81-.32-.16-.17-.27-.38-.39-.62l-.12-.23c-.24-.48-.47-.96-.69-1.44-.17-.37-.34-.73-.52-1.1-.42-.86-.83-1.72-1.23-2.59-.47-1.02-.91-2.06-1.34-3.08-.3-.72-.61-1.44-.92-2.15-.74-1.81-1.35-3.41-1.86-4.88-.07-.19-.12-.39-.17-.58-.06-.22-.18-1.04-.5-1.03-.55.02.06.92.11,1.13.03.13.07.27.11.4Z" style="fill:#09c7f9; stroke-width:0px;"/><path d="M542.66,84.8c.41-1.8.72-3.62.95-5.45.23-1.83.37-3.67.42-5.52.03-.93.03-1.85,0-2.78-.02-.88-.09-1.78.22-2.62.15-.4.36-.77.58-1.13.22-.37.44-.74.64-1.12.41-.75.79-1.52,1.13-2.31.69-1.58,1.24-3.23,1.64-4.91.05-.21.1-.42.14-.63.02-.1.3-.08.28,0-.36,1.67-.86,3.31-1.5,4.9-.32.8-.69,1.59-1.08,2.35-.39.76-.84,1.48-1.25,2.23-.21.39-.39.79-.47,1.22-.08.45-.08.9-.07,1.35.02.92.04,1.83.02,2.75-.03,1.84-.14,3.69-.35,5.52-.21,1.83-.5,3.66-.89,5.46-.05.23-.1.45-.15.68-.02.1-.3.08-.28,0Z" style="fill:#09c7f9; stroke-width:0px;"/><path d="M506.42,57.39c.22,1.9.63,3.77,1.23,5.59.3.91.65,1.81,1.04,2.68.19.43.4.86.61,1.29.21.42.43.83.58,1.28.32.93.2,1.9.12,2.86-.08.92-.17,1.83-.24,2.75-.14,1.84-.22,3.68-.09,5.52.13,1.8.47,3.59,1.17,5.26.09.21.18.42.28.62.04.09-.23.12-.27.04-.78-1.62-1.2-3.39-1.39-5.17-.19-1.83-.15-3.67-.03-5.51.06-.93.14-1.85.23-2.78.04-.46.09-.92.12-1.38.04-.51.07-1.02,0-1.53-.14-.95-.69-1.78-1.09-2.63-.41-.87-.78-1.75-1.1-2.66-.63-1.79-1.09-3.64-1.36-5.52-.03-.24-.06-.47-.09-.71-.01-.09.27-.1.28,0Z" style="fill:#09c7f9; stroke-width:0px;"/><path d="M528.39,77.15c-.08-2.75-.18-5.51-.1-8.26.02-.78.06-1.55.11-2.33.03-.39.06-.78.1-1.16.04-.4,0-.86.18-1.24.15-.32.48-.55.72-.81.61-.64,1.16-1.32,1.66-2.05.76-1.12,1.35-2.34,1.95-3.55,1.27-2.56,2.54-5.11,3.78-7.68.67-1.37,1.34-2.74,1.71-4.22.02-.1.3-.08.28,0-.32,1.31-.88,2.54-1.47,3.75-.62,1.29-1.26,2.58-1.89,3.86-.64,1.29-1.28,2.59-1.92,3.88-.61,1.24-1.21,2.5-1.96,3.66-.43.67-.92,1.32-1.45,1.92-.26.29-.52.61-.82.86-.18.16-.36.34-.42.58-.03.13-.01.26-.02.39-.02.18-.04.37-.06.55-.05.47-.09.95-.12,1.42-.13,1.93-.15,3.86-.12,5.8.04,2.76.17,5.51.2,8.27.01,1.55,0,3.1-.1,4.65,0,.1-.28.09-.28,0,.16-2.76.1-5.53.02-8.29Z" style="fill:#09c7f9; stroke-width:0px;"/><path d="M516.09,45.63c.77,2.61,1.72,5.17,2.83,7.65,1.11,2.47,2.38,4.87,3.8,7.17.05.07.09.15.14.22.5.81,1.03,1.6,1.57,2.39.22.32.5.62.59,1,.1.42.04.85.05,1.28,0,.48,0,.96.01,1.44.01,1.95-.02,3.91-.02,5.86-.04,2.79-.12,5.58-.23,8.37-.07,1.56-.14,3.13-.23,4.69,0,.1-.28.09-.28,0,.16-2.79.28-5.58.37-8.37.08-2.79.13-5.58.13-8.38,0-.88,0-1.76,0-2.64,0-.44,0-.88-.01-1.32,0-.41.04-.8-.14-1.18-.19-.39-.51-.75-.75-1.11-.52-.77-1.03-1.55-1.52-2.34-.6-.97-1.16-1.95-1.7-2.95-1.29-2.38-2.42-4.85-3.38-7.38-.54-1.43-1.03-2.88-1.47-4.35-.03-.11.24-.12.27-.04Z" style="fill:#09c7f9; stroke-width:0px;"/><path d="M549.46,95.11c.86.01,1.73.03,2.57-.16.43-.1.83-.25,1.22-.45.39-.2.78-.4,1.2-.53.47-.14.96-.21,1.44-.21.04,0,.14.01.14.07s-.1.07-.14.07c-.44,0-.88.06-1.3.19-.43.13-.82.35-1.22.55-.77.39-1.6.55-2.46.6-.48.03-.97.02-1.46.01-.04,0-.14-.01-.14-.07s.1-.07.14-.07Z" style="fill:#09c7f9; stroke-width:0px;"/><path d="M498.92,93.94c.66.38,1.37.65,2.12.79.37.07.75.11,1.13.12.4,0,.8-.02,1.2.04.41.06.8.2,1.16.41.14.08-.12.14-.2.1-.33-.19-.69-.32-1.06-.37-.4-.06-.81-.02-1.21-.04-.75-.02-1.49-.16-2.19-.41-.4-.14-.78-.32-1.15-.53-.13-.08.12-.14.2-.1Z" style="fill:#09c7f9; stroke-width:0px;"/><path d="M525.98,64.95c.13-.23.37-.36.63-.4.27-.04.62-.03.85.14.41.32.32.96-.04,1.28-.37.32-.99.3-1.31-.07-.07-.08-.13-.17-.15-.28,0,0,0-.01,0-.02-.09-.21-.08-.45.04-.65Z" style="fill:#deedff; stroke-width:0px;"/><path d="M525.98,73.63c.13-.23.37-.36.63-.4.27-.04.62-.03.85.14.41.32.32.96-.04,1.28-.37.32-.99.3-1.31-.07-.07-.08-.13-.17-.15-.28,0,0,0-.01,0-.02-.09-.21-.08-.45.04-.65Z" style="fill:#deedff; stroke-width:0px;"/><path d="M525.98,82.32c.13-.23.37-.36.63-.4.27-.04.62-.03.85.14.41.32.32.96-.04,1.28-.37.32-.99.3-1.31-.07-.07-.08-.13-.17-.15-.28,0,0,0-.01,0-.02-.09-.21-.08-.45.04-.65Z" style="fill:#deedff; stroke-width:0px;"/><circle cx="510" cy="172" r="9" style="fill:url(#_ÂÁ_Ï_ÌÌ_È_ËÂÌÚ_3-2); stroke-width:0px;"/><circle cx="576" cy="17" r="3" style="fill:#fce36c; stroke-width:0px;"/><path d="M581.13,146.99c.6-.46,1.24-.78,1.75-.68-.83-.17-1.67-.42-2.35-.93-1.43-1.09-1.77-3.06-2-4.85-.1,2.42-1.43,5.15-4.09,5.49,1.45.08,2.68,1.19,3.3,2.5s.72,2.8.74,4.25c.45-1.97.98-4.49,2.65-5.78Z" style="fill:#fff; stroke-width:0px;"/><path d="M571.17,167.5c.41-.32.86-.54,1.21-.47-.58-.12-1.16-.29-1.63-.65-.99-.75-1.22-2.12-1.38-3.35-.07,1.68-.99,3.56-2.83,3.8,1,.06,1.86.82,2.28,1.73.43.91.5,1.94.52,2.94.31-1.37.68-3.11,1.83-4Z" style="fill:#fff; stroke-width:0px;"/><path d="M506.17,12.5c.41-.32.86-.54,1.21-.47-.58-.12-1.16-.29-1.63-.65-.99-.75-1.22-2.12-1.38-3.35-.07,1.68-.99,3.56-2.83,3.8,1,.06,1.86.82,2.28,1.73.43.91.5,1.94.52,2.94.31-1.37.68-3.11,1.83-4Z" style="fill:#fff; stroke-width:0px;"/><path d="M50.24,17.38c-.08,2.27-.55,4.56-.56,6.82-.02,3.6-.14,7.17-.27,10.81-.3,8.67.13,17.61-2.77,25.93-1.94,5.58-5.29,10.58-7.16,16.18-1.42,4.21-1.94,8.65-2.35,13.06-.28,2.96.45,6.72-2.76,8.19-3.67,1.67-8.71,1.6-12.66,2.15-4.39.61-8.81,1.36-12.93,3.03,8.4.61,16.83.9,25.26.93,1.07,2.45-6.37,8.27-7.91,9.97-1.7,1.86-2.73,3.85-4.07,5.93-1.55,2.4-3.83,4.59-5.73,6.75-3.21,3.68-6.5,7.29-9.59,11-2.43,2.91-4.69,5.9-6.74,8.98v-75.76c.82-1.47,1.66-2.89,2.51-4.27C15.43,46.24,36.44,31.54,50.15,11.22c-.61.9.13,4.95.09,6.16Z" style="fill:#5a1fab; mix-blend-mode:multiply; opacity:.4; stroke-width:0px;"/><path d="M38.34,44.12c-6.38,13.95-13.91,27.31-21.19,40.8,6.14-2.5,12.29-4.99,18.43-7.49.28-.11.79-.21,1.06,0,.2.16.33.41,0,.54-6.7,2.72-13.39,5.44-20.09,8.17-.02,0-.04,0-.06,0-.84,1.57-1.68,3.13-2.52,4.7-5.04,9.51-9.88,19.18-13.97,29.14v-3.65c.71-1.67,1.45-3.34,2.21-4.99,7.08-15.49,15.57-30.27,23.58-45.29-.06-.04-.11-.09-.14-.15-2.32-5.6-4.25-11.34-5.79-17.19-.12-.45,1.35-.55,1.5,0,1.41,5.37,3.18,10.64,5.27,15.78,2.4-4.53,4.76-9.11,7.01-13.73-.39.09-.9,0-1-.25-1.55-4.38-2.58-8.92-3.06-13.53-.05-.51,1.45-.55,1.5,0,.46,4.45,1.44,8.83,2.92,13.05,5.3-10.94,10.01-22.16,13.35-33.86.14-.47,1.61-.38,1.45.2-2.72,9.52-6.34,18.75-10.46,27.74Z" style="fill:#5a1fab; stroke-width:0px;"/><path d="M25.03,142.2c-1.2,13.23-2.39,26.46-3.58,39.68-.46,5.09-.97,10.34-3.43,14.82-3.97,7.21-12.1,10.9-18.02,16.65v-36.24c1-1.55,2.01-3.1,3.05-4.63.61-.91,4.38-7.22,5.23-6.01.19.27.24.61.28.94.41,3.17.82,6.34,1.23,9.5,1.09-4.09,1.02-8.39.83-12.62-.2-4.36,4.22-8.27,6.67-11.55,1.38-1.86,2.77-3.71,4.14-5.58.8-1.09,3.48-3.64,3.6-4.96Z" style="fill:#5a1fab; mix-blend-mode:multiply; opacity:.4; stroke-width:0px;"/><path d="M21.53,167.45c-1.99.83-3.98,1.67-5.98,2.5-.14.06-.31.1-.48.11-1.74,4.27-3.49,8.58-5.78,12.57-1.54,2.68-3.24,5.25-4.95,7.82.05-.01.11-.01.15-.01,4.11.24,8.18-.41,12.01-1.91.53-.21,1.67.3.75.66-4.05,1.58-8.42,2.27-12.76,2.01-.13,0-.39-.04-.56-.13-1.23,1.84-2.44,3.69-3.58,5.59-.12.2-.23.39-.35.59v-2.6c2.9-4.71,6.31-9.15,8.85-14.06,2.55-4.95,4.57-10.23,6.69-15.38,2.21-5.36,4.3-10.76,6.11-16.27.15-.47,1.63-.37,1.44.2-2.02,6.2-4.43,12.27-6.94,18.29-.21.51-.43,1.03-.64,1.55,1.65-.69,3.31-1.38,4.96-2.07.33-.14.74-.17,1.06,0,.25.13.29.42,0,.54Z" style="fill:#5a1fab; stroke-width:0px;"/></g></g></svg>