<?xml version="1.0" encoding="UTF-8"?><svg xmlns="http://www.w3.org/2000/svg" xmlns:xlink="http://www.w3.org/1999/xlink" viewBox="0 0 730.39 304.62"><defs><clipPath id="clippath"><rect x="67.53" y="17.32" width="600" height="270" transform="translate(-.58 1.4) rotate(-.22)" style="fill:none; stroke-width:0px;"/></clipPath><radialGradient id="_ÂÁ_Ï_ÌÌ_È_ËÂÌÚ_656" cx="252.96" cy="149.21" fx="252.96" fy="149.21" r="214.14" gradientTransform="translate(717.52 289.75) rotate(-180)" gradientUnits="userSpaceOnUse"><stop offset="0" stop-color="#fffbe4"/><stop offset=".99" stop-color="#ffe1b8"/></radialGradient><linearGradient id="_ÂÁ_Ï_ÌÌ_È_ËÂÌÚ_690" x1="569.59" y1="301.01" x2="570.61" y2="71.22" gradientTransform="translate(-.58 1.4) rotate(-.22)" gradientUnits="userSpaceOnUse"><stop offset="0" stop-color="#ffe2ba"/><stop offset=".99" stop-color="#ff9d89"/></linearGradient><linearGradient id="_ÂÁ_Ï_ÌÌ_È_ËÂÌÚ_2" x1="17.87" y1="275.46" x2="729.98" y2="275.46" gradientTransform="translate(-.58 1.4) rotate(-.22)" gradientUnits="userSpaceOnUse"><stop offset="0" stop-color="#fb8f38"/><stop offset="1" stop-color="#fc7952"/></linearGradient><filter id="luminosity-noclip" x="15.28" y="261.29" width="508.52" height="15.59" color-interpolation-filters="sRGB" filterUnits="userSpaceOnUse"><feFlood flood-color="#fff" result="bg"/><feBlend in="SourceGraphic" in2="bg"/></filter><filter id="luminosity-noclip-2" x="15.28" y="-8344.32" width="454.94" height="32766" color-interpolation-filters="sRGB" filterUnits="userSpaceOnUse"><feFlood flood-color="#fff" result="bg"/><feBlend in="SourceGraphic" in2="bg"/></filter><mask id="mask-1" x="15.28" y="-8344.32" width="454.94" height="32766" maskUnits="userSpaceOnUse"/><linearGradient id="_ÂÁ_Ï_ÌÌ_È_ËÂÌÚ_14" x1="215.63" y1="318.94" x2="222.53" y2="394.77" gradientTransform="translate(460.94 6.16) rotate(-178.48) scale(1 -1)" gradientUnits="userSpaceOnUse"><stop offset="0" stop-color="#fff"/><stop offset="1" stop-color="#4d4d4d"/></linearGradient><mask id="mask" x="15.28" y="261.29" width="508.52" height="15.59" maskUnits="userSpaceOnUse"><g style="filter:url(#luminosity-noclip);"><g style="mask:url(#mask-1);"><rect x="15.17" y="269.8" width="455.14" height=".19" transform="translate(-8.07 7.48) rotate(-1.74)" style="fill:url(#_ÂÁ_Ï_ÌÌ_È_ËÂÌÚ_14); mix-blend-mode:multiply; stroke-width:0px;"/></g></g></mask><filter id="luminosity-noclip-3" x="16.99" y="267.82" width="659.08" height="15.82" color-interpolation-filters="sRGB" filterUnits="userSpaceOnUse"><feFlood flood-color="#fff" result="bg"/><feBlend in="SourceGraphic" in2="bg"/></filter><filter id="luminosity-noclip-4" x="16.99" y="-8344.32" width="659.08" height="32766" color-interpolation-filters="sRGB" filterUnits="userSpaceOnUse"><feFlood flood-color="#fff" result="bg"/><feBlend in="SourceGraphic" in2="bg"/></filter><mask id="mask-3" x="16.99" y="-8344.32" width="659.08" height="32766" maskUnits="userSpaceOnUse"/><linearGradient id="_ÂÁ_Ï_ÌÌ_È_ËÂÌÚ_12" x1="112.16" y1="328.35" x2="119.05" y2="404.18" gradientTransform="translate(459.37 2.27) rotate(-178.86) scale(1 -1)" gradientUnits="userSpaceOnUse"><stop offset="0" stop-color="#fff"/><stop offset="1" stop-color="#4d4d4d"/></linearGradient><mask id="mask-2" x="16.99" y="267.82" width="659.08" height="15.82" maskUnits="userSpaceOnUse"><g style="filter:url(#luminosity-noclip-3);"><g style="mask:url(#mask-3);"><rect x="16.9" y="275.63" width="659.26" height=".19" transform="translate(-6.44 8.29) rotate(-1.36)" style="fill:url(#_ÂÁ_Ï_ÌÌ_È_ËÂÌÚ_12); mix-blend-mode:multiply; stroke-width:0px;"/></g></g></mask><filter id="luminosity-noclip-5" x="519.26" y="271.72" width="158.59" height="8.01" color-interpolation-filters="sRGB" filterUnits="userSpaceOnUse"><feFlood flood-color="#fff" result="bg"/><feBlend in="SourceGraphic" in2="bg"/></filter><filter id="luminosity-noclip-6" x="519.26" y="-8344.32" width="158.59" height="32766" color-interpolation-filters="sRGB" filterUnits="userSpaceOnUse"><feFlood flood-color="#fff" result="bg"/><feBlend in="SourceGraphic" in2="bg"/></filter><mask id="mask-5" x="519.26" y="-8344.32" width="158.59" height="32766" maskUnits="userSpaceOnUse"/><linearGradient id="_ÂÁ_Ï_ÌÌ_È_ËÂÌÚ_11" x1="-137.88" y1="351.08" x2="-130.99" y2="426.91" gradientTransform="translate(867.14 116.67) rotate(-93.03) scale(1 -1)" gradientUnits="userSpaceOnUse"><stop offset="0" stop-color="#fff"/><stop offset="1" stop-color="#4d4d4d"/></linearGradient><mask id="mask-4" x="519.26" y="271.72" width="158.59" height="8.01" maskUnits="userSpaceOnUse"><g style="filter:url(#luminosity-noclip-5);"><g style="mask:url(#mask-5);"><rect x="598.46" y="196.34" width=".19" height="158.78" transform="translate(293.82 860.05) rotate(-87.19)" style="fill:url(#_ÂÁ_Ï_ÌÌ_È_ËÂÌÚ_11); mix-blend-mode:multiply; stroke-width:0px;"/></g></g></mask><filter id="luminosity-noclip-7" x="309.77" y="276.35" width="168.65" height="28.27" color-interpolation-filters="sRGB" filterUnits="userSpaceOnUse"><feFlood flood-color="#fff" result="bg"/><feBlend in="SourceGraphic" in2="bg"/></filter><filter id="luminosity-noclip-8" x="309.77" y="-8344.32" width="168.65" height="32766" color-interpolation-filters="sRGB" filterUnits="userSpaceOnUse"><feFlood flood-color="#fff" result="bg"/><feBlend in="SourceGraphic" in2="bg"/></filter><mask id="mask-7" x="309.77" y="-8344.32" width="168.65" height="32766" maskUnits="userSpaceOnUse"/><linearGradient id="_ÂÁ_Ï_ÌÌ_È_ËÂÌÚ_10" x1="63.69" y1="332.75" x2="70.58" y2="408.58" gradientTransform="translate(690.61 300.69) rotate(-99.67) scale(1 -1)" gradientUnits="userSpaceOnUse"><stop offset="0" stop-color="#fff"/><stop offset="1" stop-color="#4d4d4d"/></linearGradient><mask id="mask-6" x="309.77" y="276.35" width="168.65" height="28.27" maskUnits="userSpaceOnUse"><g style="filter:url(#luminosity-noclip-7);"><g style="mask:url(#mask-7);"><rect x="394.01" y="205.01" width=".19" height="170.94" transform="translate(42.86 631.54) rotate(-80.55)" style="fill:url(#_ÂÁ_Ï_ÌÌ_È_ËÂÌÚ_10); mix-blend-mode:multiply; stroke-width:0px;"/></g></g></mask><filter id="luminosity-noclip-9" x="144.02" y="280.55" width="111.1" height="18.78" color-interpolation-filters="sRGB" filterUnits="userSpaceOnUse"><feFlood flood-color="#fff" result="bg"/><feBlend in="SourceGraphic" in2="bg"/></filter><filter id="luminosity-noclip-10" x="144.02" y="-8344.32" width="111.1" height="32766" color-interpolation-filters="sRGB" filterUnits="userSpaceOnUse"><feFlood flood-color="#fff" result="bg"/><feBlend in="SourceGraphic" in2="bg"/></filter><mask id="mask-9" x="144.02" y="-8344.32" width="111.1" height="32766" maskUnits="userSpaceOnUse"/><linearGradient id="_ÂÁ_Ï_ÌÌ_È_ËÂÌÚ_9" x1="256.73" y1="315.21" x2="263.63" y2="391.04" gradientTransform="translate(527.48 492.15) rotate(-99.66) scale(1 -1)" gradientUnits="userSpaceOnUse"><stop offset="0" stop-color="#fff"/><stop offset="1" stop-color="#4d4d4d"/></linearGradient><mask id="mask-8" x="144.02" y="280.55" width="111.1" height="18.78" maskUnits="userSpaceOnUse"><g style="filter:url(#luminosity-noclip-9);"><g style="mask:url(#mask-9);"><rect x="199.48" y="233.63" width=".19" height="112.62" transform="translate(-119.19 439.23) rotate(-80.55)" style="fill:url(#_ÂÁ_Ï_ÌÌ_È_ËÂÌÚ_9); mix-blend-mode:multiply; stroke-width:0px;"/></g></g></mask><filter id="luminosity-noclip-11" x="197.48" y="271.16" width="38.17" height="7.19" color-interpolation-filters="sRGB" filterUnits="userSpaceOnUse"><feFlood flood-color="#fff" result="bg"/><feBlend in="SourceGraphic" in2="bg"/></filter><filter id="luminosity-noclip-12" x="197.48" y="-8344.32" width="38.17" height="32766" color-interpolation-filters="sRGB" filterUnits="userSpaceOnUse"><feFlood flood-color="#fff" result="bg"/><feBlend in="SourceGraphic" in2="bg"/></filter><mask id="mask-11" x="197.48" y="-8344.32" width="38.17" height="32766" maskUnits="userSpaceOnUse"/><linearGradient id="_ÂÁ_Ï_ÌÌ_È_ËÂÌÚ_8" x1="241.19" y1="316.62" x2="248.09" y2="392.45" gradientTransform="translate(529.65 457.72) rotate(-100.58) scale(1 -1)" gradientUnits="userSpaceOnUse"><stop offset="0" stop-color="#fff"/><stop offset="1" stop-color="#4d4d4d"/></linearGradient><mask id="mask-10" x="197.48" y="271.16" width="38.17" height="7.19" maskUnits="userSpaceOnUse"><g style="filter:url(#luminosity-noclip-11);"><g style="mask:url(#mask-11);"><rect x="216.47" y="255.37" width=".19" height="38.77" transform="translate(-92.66 438.37) rotate(-79.64)" style="fill:url(#_ÂÁ_Ï_ÌÌ_È_ËÂÌÚ_8); mix-blend-mode:multiply; stroke-width:0px;"/></g></g></mask><filter id="luminosity-noclip-13" x="347.28" y="266.63" width="74.73" height="7.18" color-interpolation-filters="sRGB" filterUnits="userSpaceOnUse"><feFlood flood-color="#fff" result="bg"/><feBlend in="SourceGraphic" in2="bg"/></filter><filter id="luminosity-noclip-14" x="347.28" y="-8344.32" width="74.73" height="32766" color-interpolation-filters="sRGB" filterUnits="userSpaceOnUse"><feFlood flood-color="#fff" result="bg"/><feBlend in="SourceGraphic" in2="bg"/></filter><mask id="mask-13" x="347.28" y="-8344.32" width="74.73" height="32766" maskUnits="userSpaceOnUse"/><linearGradient id="_ÂÁ_Ï_ÌÌ_È_ËÂÌÚ_6" x1="74.83" y1="331.74" x2="81.72" y2="407.58" gradientTransform="translate(660.35 313.05) rotate(-95.54) scale(1 -1)" gradientUnits="userSpaceOnUse"><stop offset="0" stop-color="#fff"/><stop offset="1" stop-color="#4d4d4d"/></linearGradient><mask id="mask-12" x="347.28" y="266.63" width="74.73" height="7.18" maskUnits="userSpaceOnUse"><g style="filter:url(#luminosity-noclip-13);"><g style="mask:url(#mask-13);"><rect x="384.55" y="232.7" width=".19" height="75.03" transform="translate(79.92 628.15) rotate(-84.68)" style="fill:url(#_ÂÁ_Ï_ÌÌ_È_ËÂÌÚ_6); mix-blend-mode:multiply; stroke-width:0px;"/></g></g></mask><linearGradient id="_ÂÁ_Ï_ÌÌ_È_ËÂÌÚ_713" x1="267.39" y1="308.56" x2="266.88" y2="189.58" gradientTransform="translate(-.58 1.4) rotate(-.22)" gradientUnits="userSpaceOnUse"><stop offset="0" stop-color="#ff8601"/><stop offset=".2" stop-color="#bb6200"/><stop offset=".42" stop-color="#793f00"/><stop offset=".61" stop-color="#452400"/><stop offset=".78" stop-color="#1f1000"/><stop offset=".91" stop-color="#080400"/><stop offset="1" stop-color="#000"/></linearGradient><linearGradient id="_ÂÁ_Ï_ÌÌ_È_ËÂÌÚ_713-2" x1="150.85" y1="309.06" x2="150.34" y2="190.09" xlink:href="#_ÂÁ_Ï_ÌÌ_È_ËÂÌÚ_713"/><linearGradient id="_ÂÁ_Ï_ÌÌ_È_ËÂÌÚ_713-3" x1="524.57" y1="307.46" x2="524.06" y2="188.48" xlink:href="#_ÂÁ_Ï_ÌÌ_È_ËÂÌÚ_713"/><linearGradient id="_ÂÁ_Ï_ÌÌ_È_ËÂÌÚ_177" x1="501.89" y1="44.43" x2="502.24" y2="44.4" gradientTransform="translate(-.58 1.4) rotate(-.22)" gradientUnits="userSpaceOnUse"><stop offset="0" stop-color="#f8c7ca"/><stop offset=".57" stop-color="#fff6f1"/><stop offset=".98" stop-color="#f8c7ca"/></linearGradient><linearGradient id="_ÂÁ_Ï_ÌÌ_È_ËÂÌÚ_46" x1="-3314.12" y1="18.28" x2="-3318.76" y2="34.76" gradientTransform="translate(-3004.69 12.8) rotate(179.78) scale(1 -1)" gradientUnits="userSpaceOnUse"><stop offset="0" stop-color="#ff6831"/><stop offset="1" stop-color="#ffcc1b"/></linearGradient><linearGradient id="_ÂÁ_Ï_ÌÌ_È_ËÂÌÚ_46-2" x1="-3323.75" y1="63.87" x2="-3347.98" y2="97.11" xlink:href="#_ÂÁ_Ï_ÌÌ_È_ËÂÌÚ_46"/><linearGradient id="_ÂÁ_Ï_ÌÌ_È_ËÂÌÚ_46-3" x1="-3290.1" y1="55.8" x2="-3350.66" y2="82.41" xlink:href="#_ÂÁ_Ï_ÌÌ_È_ËÂÌÚ_46"/><linearGradient id="_ÂÁ_Ï_ÌÌ_È_ËÂÌÚ_34" x1="276.83" y1="25.01" x2="323.05" y2="79.14" gradientTransform="translate(-.58 1.4) rotate(-.22)" gradientUnits="userSpaceOnUse"><stop offset="0" stop-color="#ffc089"/><stop offset="1" stop-color="#ffe3b5"/></linearGradient><linearGradient id="_ÂÁ_Ï_ÌÌ_È_ËÂÌÚ_28" x1="-3319.22" y1="93.63" x2="-3316.4" y2="59.68" gradientTransform="translate(-3004.69 12.8) rotate(179.78) scale(1 -1)" gradientUnits="userSpaceOnUse"><stop offset="0" stop-color="#fff"/><stop offset=".99" stop-color="#db2497"/></linearGradient><linearGradient id="_ÂÁ_Ï_ÌÌ_È_ËÂÌÚ_28-2" x1="290.56" y1="75.59" x2="336.45" y2="75.59" gradientTransform="translate(-.58 1.4) rotate(-.22)" xlink:href="#_ÂÁ_Ï_ÌÌ_È_ËÂÌÚ_28"/><radialGradient id="_ÂÁ_Ï_ÌÌ_È_ËÂÌÚ_656-2" cx="313.51" cy="75.08" fx="313.51" fy="75.08" r="17.13" gradientTransform="translate(-.58 1.4) rotate(-.22)" xlink:href="#_ÂÁ_Ï_ÌÌ_È_ËÂÌÚ_656"/><linearGradient id="_ÂÁ_Ï_ÌÌ_È_ËÂÌÚ_44" x1="341.54" y1="74.74" x2="330.94" y2="48.95" gradientTransform="translate(-.58 1.4) rotate(-.22)" gradientUnits="userSpaceOnUse"><stop offset="0" stop-color="#ffb127"/><stop offset="1" stop-color="#000"/></linearGradient><linearGradient id="_ÂÁ_Ï_ÌÌ_È_ËÂÌÚ_28-3" x1="328.7" y1="88.12" x2="275.21" y2="29.39" gradientTransform="translate(-.58 1.4) rotate(-.22)" xlink:href="#_ÂÁ_Ï_ÌÌ_È_ËÂÌÚ_28"/><linearGradient id="_ÂÁ_Ï_ÌÌ_È_ËÂÌÚ_365" x1="394.4" y1="268" x2="398.47" y2="248.02" gradientTransform="translate(-.58 1.4) rotate(-.22)" gradientUnits="userSpaceOnUse"><stop offset="0" stop-color="#de3810"/><stop offset="1" stop-color="#b1223d"/></linearGradient><linearGradient id="_ÂÁ_Ï_ÌÌ_È_ËÂÌÚ_366" x1="452.65" y1="220.91" x2="528.3" y2="290.37" gradientTransform="translate(-.58 1.4) rotate(-.22)" gradientUnits="userSpaceOnUse"><stop offset="0" stop-color="#fb7700"/><stop offset="1" stop-color="#fc541a"/></linearGradient><linearGradient id="_ÂÁ_Ï_ÌÌ_È_ËÂÌÚ_365-2" x1="416.83" y1="288.09" x2="392.09" y2="52.65" xlink:href="#_ÂÁ_Ï_ÌÌ_È_ËÂÌÚ_365"/><linearGradient id="_ÂÁ_Ï_ÌÌ_È_ËÂÌÚ_366-2" x1="434.54" y1="319.63" x2="392.47" y2="125.44" xlink:href="#_ÂÁ_Ï_ÌÌ_È_ËÂÌÚ_366"/><linearGradient id="_ÂÁ_Ï_ÌÌ_È_ËÂÌÚ_365-3" x1="400.81" y1="216.46" x2="317.67" y2="150.92" xlink:href="#_ÂÁ_Ï_ÌÌ_È_ËÂÌÚ_365"/><linearGradient id="_ÂÁ_Ï_ÌÌ_È_ËÂÌÚ_365-4" x1="392.47" y1="213.82" x2="414.94" y2="103.54" xlink:href="#_ÂÁ_Ï_ÌÌ_È_ËÂÌÚ_365"/><linearGradient id="_ÂÁ_Ï_ÌÌ_È_ËÂÌÚ_365-5" x1="399.59" y1="258.5" x2="394.58" y2="235.36" gradientTransform="translate(4.01 -7.3) rotate(-.6)" xlink:href="#_ÂÁ_Ï_ÌÌ_È_ËÂÌÚ_365"/><linearGradient id="_ÂÁ_Ï_ÌÌ_È_ËÂÌÚ_39" x1="373.14" y1="247.12" x2="376.65" y2="238.8" gradientTransform="translate(-.58 1.4) rotate(-.22)" gradientUnits="userSpaceOnUse"><stop offset="0" stop-color="#fff"/><stop offset="1" stop-color="#c72481"/></linearGradient><linearGradient id="_ÂÁ_Ï_ÌÌ_È_ËÂÌÚ_365-6" x1="376.58" y1="239.15" x2="380.8" y2="239.15" gradientTransform="translate(.33 -.04)" xlink:href="#_ÂÁ_Ï_ÌÌ_È_ËÂÌÚ_365"/><linearGradient id="_ÂÁ_Ï_ÌÌ_È_ËÂÌÚ_44-2" x1="380.52" y1="236.76" x2="380.57" y2="241.52" xlink:href="#_ÂÁ_Ï_ÌÌ_È_ËÂÌÚ_44"/><linearGradient id="_ÂÁ_Ï_ÌÌ_È_ËÂÌÚ_44-3" x1="357.32" y1="46.62" x2="465.42" y2="232.99" xlink:href="#_ÂÁ_Ï_ÌÌ_È_ËÂÌÚ_44"/><linearGradient id="_ÂÁ_Ï_ÌÌ_È_ËÂÌÚ_39-2" x1="419.93" y1="247.12" x2="423.43" y2="238.8" xlink:href="#_ÂÁ_Ï_ÌÌ_È_ËÂÌÚ_39"/><linearGradient id="_ÂÁ_Ï_ÌÌ_È_ËÂÌÚ_365-7" x1="423.37" y1="239.15" x2="427.59" y2="239.15" gradientTransform="translate(.33 -.22)" xlink:href="#_ÂÁ_Ï_ÌÌ_È_ËÂÌÚ_365"/><linearGradient id="_ÂÁ_Ï_ÌÌ_È_ËÂÌÚ_44-4" x1="427.3" y1="236.76" x2="427.35" y2="241.52" xlink:href="#_ÂÁ_Ï_ÌÌ_È_ËÂÌÚ_44"/><linearGradient id="_ÂÁ_Ï_ÌÌ_È_ËÂÌÚ_39-3" x1="388.43" y1="172.64" x2="391.93" y2="164.33" xlink:href="#_ÂÁ_Ï_ÌÌ_È_ËÂÌÚ_39"/><linearGradient id="_ÂÁ_Ï_ÌÌ_È_ËÂÌÚ_365-8" x1="391.87" y1="164.67" x2="396.09" y2="164.67" xlink:href="#_ÂÁ_Ï_ÌÌ_È_ËÂÌÚ_365"/><linearGradient id="_ÂÁ_Ï_ÌÌ_È_ËÂÌÚ_44-5" x1="395.81" y1="162.29" x2="395.85" y2="167.05" xlink:href="#_ÂÁ_Ï_ÌÌ_È_ËÂÌÚ_44"/><linearGradient id="_ÂÁ_Ï_ÌÌ_È_ËÂÌÚ_39-4" x1="408.19" y1="172.64" x2="411.69" y2="164.33" xlink:href="#_ÂÁ_Ï_ÌÌ_È_ËÂÌÚ_39"/><linearGradient id="_ÂÁ_Ï_ÌÌ_È_ËÂÌÚ_365-9" x1="411.63" y1="164.67" x2="415.85" y2="164.67" gradientTransform="translate(.04 -.17)" xlink:href="#_ÂÁ_Ï_ÌÌ_È_ËÂÌÚ_365"/><linearGradient id="_ÂÁ_Ï_ÌÌ_È_ËÂÌÚ_44-6" x1="415.57" y1="162.29" x2="415.61" y2="167.05" xlink:href="#_ÂÁ_Ï_ÌÌ_È_ËÂÌÚ_44"/><linearGradient id="_ÂÁ_Ï_ÌÌ_È_ËÂÌÚ_39-5" x1="424.5" y1="141.23" x2="358.35" y2="147.22" xlink:href="#_ÂÁ_Ï_ÌÌ_È_ËÂÌÚ_39"/><linearGradient id="_ÂÁ_Ï_ÌÌ_È_ËÂÌÚ_39-6" x1="400.72" y1="199.09" x2="342.68" y2="143.16" xlink:href="#_ÂÁ_Ï_ÌÌ_È_ËÂÌÚ_39"/><linearGradient id="_ÂÁ_Ï_ÌÌ_È_ËÂÌÚ_39-7" x1="426.73" y1="129.66" x2="385.65" y2="120.24" xlink:href="#_ÂÁ_Ï_ÌÌ_È_ËÂÌÚ_39"/><linearGradient id="_ÂÁ_Ï_ÌÌ_È_ËÂÌÚ_39-8" x1="396.65" y1="132.53" x2="395.43" y2="147.82" xlink:href="#_ÂÁ_Ï_ÌÌ_È_ËÂÌÚ_39"/><linearGradient id="_ÂÁ_Ï_ÌÌ_È_ËÂÌÚ_39-9" x1="378.14" y1="177.89" x2="463.01" y2="230.23" xlink:href="#_ÂÁ_Ï_ÌÌ_È_ËÂÌÚ_39"/><linearGradient id="_ÂÁ_Ï_ÌÌ_È_ËÂÌÚ_39-10" x1="386.65" y1="218.76" x2="395.26" y2="224.07" xlink:href="#_ÂÁ_Ï_ÌÌ_È_ËÂÌÚ_39"/><linearGradient id="_ÂÁ_Ï_ÌÌ_È_ËÂÌÚ_39-11" x1="362.44" y1="223.39" x2="412.12" y2="254.03" xlink:href="#_ÂÁ_Ï_ÌÌ_È_ËÂÌÚ_39"/><linearGradient id="_ÂÁ_Ï_ÌÌ_È_ËÂÌÚ_39-12" x1="402.82" y1="103.55" x2="408.44" y2="107.02" xlink:href="#_ÂÁ_Ï_ÌÌ_È_ËÂÌÚ_39"/><linearGradient id="_ÂÁ_Ï_ÌÌ_È_ËÂÌÚ_39-13" x1="421.94" y1="150.52" x2="472.45" y2="181.67" xlink:href="#_ÂÁ_Ï_ÌÌ_È_ËÂÌÚ_39"/><linearGradient id="_ÂÁ_Ï_ÌÌ_È_ËÂÌÚ_39-14" x1="399.15" y1="107.38" x2="412.85" y2="115.83" xlink:href="#_ÂÁ_Ï_ÌÌ_È_ËÂÌÚ_39"/><linearGradient id="_ÂÁ_Ï_ÌÌ_È_ËÂÌÚ_39-15" x1="416.6" y1="114.63" x2="466.65" y2="156.2" xlink:href="#_ÂÁ_Ï_ÌÌ_È_ËÂÌÚ_39"/><linearGradient id="_ÂÁ_Ï_ÌÌ_È_ËÂÌÚ_39-16" x1="388.87" y1="262.59" x2="390.59" y2="258.08" xlink:href="#_ÂÁ_Ï_ÌÌ_È_ËÂÌÚ_39"/><linearGradient id="_ÂÁ_Ï_ÌÌ_È_ËÂÌÚ_39-17" x1="-1996.36" y1="1138.67" x2="-2020" y2="1183.2" gradientTransform="translate(-539.22 -1908.29) rotate(-83.96)" xlink:href="#_ÂÁ_Ï_ÌÌ_È_ËÂÌÚ_39"/><linearGradient id="_ÂÁ_Ï_ÌÌ_È_ËÂÌÚ_39-18" x1="372" y1="85.23" x2="403.34" y2="104.56" xlink:href="#_ÂÁ_Ï_ÌÌ_È_ËÂÌÚ_39"/><linearGradient id="_ÂÁ_Ï_ÌÌ_È_ËÂÌÚ_39-19" x1="402" y1="92.3" x2="413.7" y2="99.51" xlink:href="#_ÂÁ_Ï_ÌÌ_È_ËÂÌÚ_39"/><linearGradient id="_ÂÁ_Ï_ÌÌ_È_ËÂÌÚ_39-20" x1="339.25" y1="157.36" x2="370.72" y2="176.77" xlink:href="#_ÂÁ_Ï_ÌÌ_È_ËÂÌÚ_39"/><linearGradient id="_ÂÁ_Ï_ÌÌ_È_ËÂÌÚ_39-21" x1="350.04" y1="182.3" x2="363.87" y2="190.83" xlink:href="#_ÂÁ_Ï_ÌÌ_È_ËÂÌÚ_39"/><linearGradient id="_ÂÁ_Ï_ÌÌ_È_ËÂÌÚ_39-22" x1="434.37" y1="192.81" x2="456.45" y2="206.43" xlink:href="#_ÂÁ_Ï_ÌÌ_È_ËÂÌÚ_39"/><linearGradient id="_ÂÁ_Ï_ÌÌ_È_ËÂÌÚ_39-23" x1="398.42" y1="123.67" x2="483.13" y2="175.92" xlink:href="#_ÂÁ_Ï_ÌÌ_È_ËÂÌÚ_39"/><linearGradient id="_ÂÁ_Ï_ÌÌ_È_ËÂÌÚ_39-24" x1="431.68" y1="233.18" x2="456.76" y2="248.65" xlink:href="#_ÂÁ_Ï_ÌÌ_È_ËÂÌÚ_39"/><linearGradient id="_ÂÁ_Ï_ÌÌ_È_ËÂÌÚ_39-25" x1="424.43" y1="155.81" x2="464.45" y2="180.49" xlink:href="#_ÂÁ_Ï_ÌÌ_È_ËÂÌÚ_39"/><linearGradient id="_ÂÁ_Ï_ÌÌ_È_ËÂÌÚ_39-26" x1="413.87" y1="232.6" x2="414.67" y2="256.14" xlink:href="#_ÂÁ_Ï_ÌÌ_È_ËÂÌÚ_39"/><linearGradient id="_ÂÁ_Ï_ÌÌ_È_ËÂÌÚ_39-27" x1="426.6" y1="232.17" x2="427.39" y2="255.71" xlink:href="#_ÂÁ_Ï_ÌÌ_È_ËÂÌÚ_39"/><linearGradient id="_ÂÁ_Ï_ÌÌ_È_ËÂÌÚ_39-28" x1="352.25" y1="239.79" x2="360.06" y2="242.19" xlink:href="#_ÂÁ_Ï_ÌÌ_È_ËÂÌÚ_39"/><linearGradient id="_ÂÁ_Ï_ÌÌ_È_ËÂÌÚ_39-29" x1="351.17" y1="250.09" x2="360" y2="252.8" xlink:href="#_ÂÁ_Ï_ÌÌ_È_ËÂÌÚ_39"/><linearGradient id="_ÂÁ_Ï_ÌÌ_È_ËÂÌÚ_39-30" x1="335.89" y1="228.16" x2="441.05" y2="147.21" xlink:href="#_ÂÁ_Ï_ÌÌ_È_ËÂÌÚ_39"/><linearGradient id="_ÂÁ_Ï_ÌÌ_È_ËÂÌÚ_39-31" x1="438.36" y1="227.04" x2="291.11" y2="142.89" xlink:href="#_ÂÁ_Ï_ÌÌ_È_ËÂÌÚ_39"/><linearGradient id="_ÂÁ_Ï_ÌÌ_È_ËÂÌÚ_39-32" x1="369.55" y1="217.24" x2="352.46" y2="219.94" xlink:href="#_ÂÁ_Ï_ÌÌ_È_ËÂÌÚ_39"/><linearGradient id="_ÂÁ_Ï_ÌÌ_È_ËÂÌÚ_39-33" x1="382.07" y1="180.56" x2="355.85" y2="184.69" xlink:href="#_ÂÁ_Ï_ÌÌ_È_ËÂÌÚ_39"/><linearGradient id="_ÂÁ_Ï_ÌÌ_È_ËÂÌÚ_44-7" x1="326.44" y1="63.95" x2="434.54" y2="250.32" xlink:href="#_ÂÁ_Ï_ÌÌ_È_ËÂÌÚ_44"/><linearGradient id="_ÂÁ_Ï_ÌÌ_È_ËÂÌÚ_44-8" x1="427.09" y1="126.05" x2="434.71" y2="139.19" xlink:href="#_ÂÁ_Ï_ÌÌ_È_ËÂÌÚ_44"/><linearGradient id="_ÂÁ_Ï_ÌÌ_È_ËÂÌÚ_39-34" x1="448.93" y1="289.62" x2="429.99" y2="158.08" xlink:href="#_ÂÁ_Ï_ÌÌ_È_ËÂÌÚ_39"/><linearGradient id="_ÂÁ_Ï_ÌÌ_È_ËÂÌÚ_690-2" x1="540.25" y1="216.54" x2="546.78" y2="99.88" xlink:href="#_ÂÁ_Ï_ÌÌ_È_ËÂÌÚ_690"/><linearGradient id="_ÂÁ_Ï_ÌÌ_È_ËÂÌÚ_365-10" x1="530.56" y1="142.94" x2="588.52" y2="142.94" xlink:href="#_ÂÁ_Ï_ÌÌ_È_ËÂÌÚ_365"/><linearGradient id="_ÂÁ_Ï_ÌÌ_È_ËÂÌÚ_285" x1="530.24" y1="155.52" x2="567.64" y2="94.08" gradientTransform="translate(-.58 1.4) rotate(-.22)" gradientUnits="userSpaceOnUse"><stop offset="0" stop-color="#ff6f34"/><stop offset="1" stop-color="#000"/></linearGradient><linearGradient id="_ÂÁ_Ï_ÌÌ_È_ËÂÌÚ_285-2" x1="523.32" y1="151.32" x2="560.73" y2="89.87" xlink:href="#_ÂÁ_Ï_ÌÌ_È_ËÂÌÚ_285"/><linearGradient id="_ÂÁ_Ï_ÌÌ_È_ËÂÌÚ_28-4" x1="423.62" y1="206.96" x2="455.86" y2="290.86" gradientTransform="translate(-.58 1.4) rotate(-.22)" xlink:href="#_ÂÁ_Ï_ÌÌ_È_ËÂÌÚ_28"/><linearGradient id="_ÂÁ_Ï_ÌÌ_È_ËÂÌÚ_38" x1="-566.6" y1="262.55" x2="-577.9" y2="185.24" gradientTransform="translate(1043.37 -2.56) rotate(-.22)" gradientUnits="userSpaceOnUse"><stop offset=".01" stop-color="#514500"/><stop offset="1" stop-color="#595f0c"/></linearGradient><linearGradient id="_ÂÁ_Ï_ÌÌ_È_ËÂÌÚ_62" x1="-760.05" y1="-65.97" x2="-760.97" y2="-124.75" gradientTransform="translate(1247.73 168.89) rotate(-10.79)" gradientUnits="userSpaceOnUse"><stop offset=".01" stop-color="#b39609"/><stop offset="1" stop-color="#c0ca0c"/></linearGradient><linearGradient id="_ÂÁ_Ï_ÌÌ_È_ËÂÌÚ_7" x1="-786.33" y1="-55.52" x2="-754.69" y2="-121.13" gradientTransform="translate(1247.73 168.89) rotate(-10.79)" gradientUnits="userSpaceOnUse"><stop offset=".01" stop-color="#776d09"/><stop offset="1" stop-color="#7e810c"/></linearGradient><linearGradient id="_ÂÁ_Ï_ÌÌ_È_ËÂÌÚ_7-2" x1="-773.49" y1="-82.83" x2="-774.46" y2="-144.56" xlink:href="#_ÂÁ_Ï_ÌÌ_È_ËÂÌÚ_7"/><linearGradient id="_ÂÁ_Ï_ÌÌ_È_ËÂÌÚ_62-2" x1="-765.32" y1="-47.1" x2="-738.07" y2="-103.61" xlink:href="#_ÂÁ_Ï_ÌÌ_È_ËÂÌÚ_62"/><linearGradient id="_ÂÁ_Ï_ÌÌ_È_ËÂÌÚ_246" x1="-779.74" y1="-83.77" x2="-764.78" y2="-114.8" gradientTransform="translate(1247.73 168.89) rotate(-10.79)" gradientUnits="userSpaceOnUse"><stop offset="0" stop-color="#504800"/><stop offset="1" stop-color="#e4ff27"/></linearGradient><linearGradient id="_ÂÁ_Ï_ÌÌ_È_ËÂÌÚ_246-2" x1="-770.38" y1="-62.34" x2="-747.33" y2="-110.15" xlink:href="#_ÂÁ_Ï_ÌÌ_È_ËÂÌÚ_246"/><linearGradient id="_ÂÁ_Ï_ÌÌ_È_ËÂÌÚ_246-3" x1="-783.35" y1="-88.13" x2="-763.41" y2="-129.49" xlink:href="#_ÂÁ_Ï_ÌÌ_È_ËÂÌÚ_246"/><linearGradient id="_ÂÁ_Ï_ÌÌ_È_ËÂÌÚ_407" x1="-567.25" y1="221.58" x2="-539.24" y2="182.07" gradientTransform="translate(1043.37 -2.56) rotate(-.22)" gradientUnits="userSpaceOnUse"><stop offset="0" stop-color="#000"/><stop offset="1" stop-color="#ff8e27"/></linearGradient><linearGradient id="_ÂÁ_Ï_ÌÌ_È_ËÂÌÚ_34-2" x1="494.51" y1="254.3" x2="461.78" y2="260.61" xlink:href="#_ÂÁ_Ï_ÌÌ_È_ËÂÌÚ_34"/><linearGradient id="_ÂÁ_Ï_ÌÌ_È_ËÂÌÚ_28-5" x1="483.8" y1="259.51" x2="446.19" y2="254.57" gradientTransform="translate(-.58 1.4) rotate(-.22)" xlink:href="#_ÂÁ_Ï_ÌÌ_È_ËÂÌÚ_28"/><linearGradient id="_ÂÁ_Ï_ÌÌ_È_ËÂÌÚ_407-2" x1="484.41" y1="264.15" x2="481.75" y2="250.71" gradientTransform="translate(-.58 1.4) rotate(-.22)" xlink:href="#_ÂÁ_Ï_ÌÌ_È_ËÂÌÚ_407"/><linearGradient id="_ÂÁ_Ï_ÌÌ_È_ËÂÌÚ_7-3" x1="-580.57" y1="251.8" x2="-585.69" y2="216.82" gradientTransform="translate(1043.37 -2.56) rotate(-.22)" xlink:href="#_ÂÁ_Ï_ÌÌ_È_ËÂÌÚ_7"/><linearGradient id="_ÂÁ_Ï_ÌÌ_È_ËÂÌÚ_2-2" x1="574.64" y1="326.71" x2="593.79" y2="282.54" xlink:href="#_ÂÁ_Ï_ÌÌ_È_ËÂÌÚ_2"/></defs><g style="isolation:isolate;"><g id="factory_milk"><g style="clip-path:url(#clippath);"><rect x="29" y="13.15" width="659.49" height="263.49" transform="translate(718.03 288.42) rotate(179.78)" style="fill:url(#_ÂÁ_Ï_ÌÌ_È_ËÂÌÚ_656); stroke-width:0px;"/><polygon points="713.02 12.33 419.51 39.74 420.19 260.68 720.99 262.74 713.02 12.33" style="fill:url(#_ÂÁ_Ï_ÌÌ_È_ËÂÌÚ_690); fill-rule:evenodd; stroke-width:0px;"/><polygon points="730.39 260.69 421.12 258.03 25.21 269.48 18.41 294.01 727.43 286.57 730.39 260.69" style="fill:url(#_ÂÁ_Ï_ÌÌ_È_ËÂÌÚ_2); fill-rule:evenodd; stroke-width:0px;"/><path d="M720.92,265.13l-343.64-7.1-4.18-158.54s-.02,0-.03,0l-.52-13.57-.27-6.9-.85-17.81S245.22,26.17,0,48.93L9.26,0l686.09,10.31,25.56,254.82Z" style="fill:#d9658b; mix-blend-mode:multiply; opacity:.5; stroke-width:0px;"/><g style="mix-blend-mode:multiply; opacity:.5;"><g style="mask:url(#mask);"><rect x="15.16" y="269" width="508.75" height=".19" transform="translate(-8.02 8.29) rotate(-1.74)" style="fill:#a02d72; stroke-width:0px;"/></g><g style="mask:url(#mask-2);"><rect x="16.9" y="275.63" width="659.26" height=".19" transform="translate(-6.44 8.29) rotate(-1.36)" style="fill:#a02d72; stroke-width:0px;"/></g><g style="mask:url(#mask-4);"><rect x="598.46" y="196.34" width=".19" height="158.78" transform="translate(293.82 860.05) rotate(-87.19)" style="fill:#a02d72; stroke-width:0px;"/></g><g style="mask:url(#mask-6);"><rect x="394.01" y="205.01" width=".19" height="170.94" transform="translate(42.86 631.54) rotate(-80.55)" style="fill:#a02d72; stroke-width:0px;"/></g><g style="mask:url(#mask-8);"><rect x="199.48" y="233.63" width=".19" height="112.62" transform="translate(-119.19 439.23) rotate(-80.55)" style="fill:#a02d72; stroke-width:0px;"/></g><g style="mask:url(#mask-10);"><rect x="216.47" y="255.37" width=".19" height="38.77" transform="translate(-92.66 438.37) rotate(-79.64)" style="fill:#a02d72; stroke-width:0px;"/></g><g style="mask:url(#mask-12);"><rect x="384.55" y="232.7" width=".19" height="75.03" transform="translate(79.92 628.15) rotate(-84.68)" style="fill:#a02d72; stroke-width:0px;"/></g></g><polygon points="390.27 290.5 310.94 276.63 145.31 280.51 218.7 293.45 390.27 290.5" style="fill:url(#_ÂÁ_Ï_ÌÌ_È_ËÂÌÚ_713); mix-blend-mode:screen; opacity:.61; stroke-width:0px;"/><polygon points="18.15 276.78 288.41 268.29 272.6 264.9 13.81 268.76 18.15 276.78" style="fill:url(#_ÂÁ_Ï_ÌÌ_È_ËÂÌÚ_713-2); mix-blend-mode:screen; opacity:.61; stroke-width:0px;"/><path d="M685.76,290.22c-.2-.13-4.55-10.11-4.55-10.11l-157.65-8.42-149.82,2.98,95.41,12.66-39.83.15-65.15-12.39,59.05,18.16,262.54-3.02Z" style="fill:url(#_ÂÁ_Ï_ÌÌ_È_ËÂÌÚ_713-3); fill-rule:evenodd; mix-blend-mode:screen; opacity:.61; stroke-width:0px;"/><path d="M501.83,43.88c-.22.04-.36.06-.36.06,0,0,0,0,0-.02l.37-.03Z" style="fill:url(#_ÂÁ_Ï_ÌÌ_È_ËÂÌÚ_177); fill-rule:evenodd; stroke-width:0px;"/><polygon points="311.94 53.46 312.2 53.45 311.52 26.03 311.26 26.05 311.94 53.46" style="fill:#493054; stroke-width:0px;"/><path d="M317.23,23.62c-6.31,8.2-12.63-.12-12.63-.12,6.16-2.82,12.63.12,12.63.12Z" style="fill:url(#_ÂÁ_Ï_ÌÌ_È_ËÂÌÚ_46); stroke-width:0px;"/><polygon points="316.06 54.53 314.97 52.64 309.19 52.84 308.69 55.18 316.06 54.53" style="fill:url(#_ÂÁ_Ï_ÌÌ_È_ËÂÌÚ_46-2); stroke-width:0px;"/><path d="M364.27,64.26s-27.72-11.01-52.32-9.91c-24.6,1.1-50.02,17.53-50.02,17.53l102.34-7.62Z" style="fill:url(#_ÂÁ_Ï_ÌÌ_È_ËÂÌÚ_46-3); stroke-width:0px;"/><path d="M364.27,64.26c-65.27-13.48-102.34,7.62-102.34,7.62,0,0,26.36,5.39,55.49,3.76,29.13-1.63,46.85-11.38,46.85-11.38Z" style="fill:url(#_ÂÁ_Ï_ÌÌ_È_ËÂÌÚ_34); stroke-width:0px;"/><path d="M286.08,74.77s2.3.36,6.23.69c5.13.43,13.04.8,22.28.24,8.41-.51,14.92-1.62,19.24-2.58,4.06-.9,6.21-1.67,6.21-1.67-1.45-.46-2.87-.86-4.28-1.22-21.18-5.43-37.8-.58-45.31,2.48-2.83,1.15-4.37,2.05-4.37,2.05Z" style="fill:url(#_ÂÁ_Ï_ÌÌ_È_ËÂÌÚ_28); mix-blend-mode:multiply; opacity:.9; stroke-width:0px;"/><path d="M290.26,73.47s.85.93,2.43,2.24c.1.08.2.16.3.25.11.09.23.18.34.27,4.04,3.17,11.82,7.88,21.82,7.27,7.74-.48,13.12-3.99,16.5-7.27.71-.69,1.34-1.37,1.88-2.01.24-.29.47-.57.68-.84,1.1-1.41,1.72-2.51,1.93-2.89-21.18-5.43-37.8-.58-45.31,2.48-.38.32-.57.5-.57.5Z" style="fill:url(#_ÂÁ_Ï_ÌÌ_È_ËÂÌÚ_28-2); mix-blend-mode:multiply; opacity:.9; stroke-width:0px;"/><path d="M290.26,72.96s.85.93,2.43,2.24c.1.08.2.16.3.25.11.09.23.18.34.27,4.04,3.17,11.82,7.88,21.82,7.27,7.74-.48,13.12-3.99,16.5-7.27.71-.69,1.34-1.37,1.88-2.01.24-.29.47-.57.68-.85,1.1-1.41,1.72-2.51,1.93-2.89-21.18-5.43-37.8-.58-45.31,2.48-.38.32-.57.5-.57.5Z" style="fill:url(#_ÂÁ_Ï_ÌÌ_È_ËÂÌÚ_656-2); stroke-width:0px;"/><path d="M332.8,60.74l-4.48,7.76s4.8.55,5.14.4c.09-.04,12.51-7.44,12.51-7.44l-13.17-.72Z" style="fill:url(#_ÂÁ_Ï_ÌÌ_È_ËÂÌÚ_44); mix-blend-mode:screen; stroke-width:0px;"/><path d="M290.17,73.04s.85.93,2.43,2.24c.1.08.2.16.3.25,11.09-7.11,25.57-11.34,40.53-1.74.24-.29.47-.57.68-.85,1.1-1.41,1.72-2.51,1.93-2.89-21.18-5.43-37.8-.58-45.31,2.48-.38.32-.57.5-.57.5Z" style="fill:url(#_ÂÁ_Ï_ÌÌ_È_ËÂÌÚ_28-3); mix-blend-mode:multiply; opacity:.9; stroke-width:0px;"/><path d="M370.97,101.03l-43.91.17s2.29,153.52,3.98,152.84c1.7-.69,56.47-10.09,56.47-10.09l-16.54-142.92Z" style="fill:#d9658b; mix-blend-mode:multiply; opacity:.5; stroke-width:0px;"/><path d="M446.09,256.95v3.74s-98.79.38-98.79.38l-.02-4.56,10.44.05h.11s43.62.19,43.62.19l8.14.04,10.48.04,5.4.02s0,0,0,0h2.04s18.56.1,18.56.1Z" style="fill:url(#_ÂÁ_Ï_ÌÌ_È_ËÂÌÚ_365); stroke-width:0px;"/><polygon points="446.09 258.05 446.1 259.24 401.51 259.65 359.28 260.04 359.19 260.04 359.19 261.02 347.3 261.07 347.29 257.38 357.74 257.46 357.84 257.46 401.47 257.74 410.25 257.8 410.26 257.8 420.63 257.88 420.64 257.88 427.78 257.93 427.81 257.93 429.92 257.94 446.09 258.05" style="fill:#8d0e33; stroke-width:0px;"/><path d="M452.32,95.18v.43s-1.48,56.55-1.48,56.55v.02s-.75,28.43-.75,28.43h0s-.48,18.38-.48,18.38l-.16,6.1-.86,32.74-.28,10.36-.26,10.25-90.29.34-.03-1.33v-.9s-.04-2.14-.04-2.14v-1.29s-.08-4.42-.08-4.42l-.07-4.7-.82-57.4v-1.27s-.01,0-.01,0l-.16-11.74v-.67s-.08-4.89-.08-4.89v-.22s-.11-7.1-.11-7.1l-.94-65.8h.1s29.24.08,29.24.08l9.48.02h4.62s8.23.04,8.23.04h.79s44.44.12,44.44.12Z" style="fill:url(#_ÂÁ_Ï_ÌÌ_È_ËÂÌÚ_366); stroke-width:0px;"/><polygon points="449.81 98.43 445.8 255.97 360.8 256.3 358.63 101.45 358.58 98.16 449.81 98.43" style="fill:url(#_ÂÁ_Ï_ÌÌ_È_ËÂÌÚ_365-2); stroke-width:0px;"/><polygon points="447.6 101.7 444.19 235.4 444.19 235.42 443.66 255.98 360.8 256.3 358.63 101.45 447.6 101.7" style="fill:url(#_ÂÁ_Ï_ÌÌ_È_ËÂÌÚ_366-2); stroke-width:0px;"/><polygon points="357.76 258.79 347.29 258.8 345.74 258.8 345.15 235.89 344.79 221.45 344.5 209.96 344.12 195.07 341.72 100.57 355.42 94.92 356.36 160.71 356.47 167.95 356.47 168.03 356.53 172.93 356.55 173.61 356.72 185.34 356.73 186.61 357.55 244.01 357.62 248.71 357.68 253.13 357.7 254.42 357.73 256.56 357.75 257.46 357.76 258.79" style="fill:url(#_ÂÁ_Ï_ÌÌ_È_ËÂÌÚ_365-3); stroke-width:0px;"/><path d="M402.2,98.88l.19,131.51.43-.02s.21-131.54.03-131.54-.65.04-.65.04Z" style="fill:url(#_ÂÁ_Ï_ÌÌ_È_ËÂÌÚ_365-4); stroke-width:0px;"/><polygon points="360.38 229.43 444.69 230.62 444.53 230.95 360.34 230.04 360.38 229.43" style="fill:url(#_ÂÁ_Ï_ÌÌ_È_ËÂÌÚ_365-5); stroke-width:0px;"/><path d="M377.23,241.34c-1.03,1.91-2.67,3.5-3.32,3.03-.6-.44.14-2.37,1.31-3.95.94-1.26,1.94-1.99,2.42-1.84.5.16.39,1.28-.41,2.76Z" style="fill:url(#_ÂÁ_Ï_ÌÌ_È_ËÂÌÚ_39); mix-blend-mode:multiply; opacity:.4; stroke-width:0px;"/><ellipse cx="379.02" cy="239.1" rx="2.11" ry=".86" transform="translate(-.91 1.44) rotate(-.22)" style="fill:url(#_ÂÁ_Ï_ÌÌ_È_ËÂÌÚ_365-6); stroke-width:0px;"/><path d="M382.35,238.87c0,1.16-.94,2.11-2.1,2.12s-2.11-.94-2.12-2.1.94-2.11,2.1-2.12,2.11.94,2.12,2.1Z" style="fill:#ffab50; stroke-width:0px;"/><path d="M379.8,236.97c1.26,2.89,2.27,1.3,2.08.75-.19-.55-1.29-1.05-2.08-.75Z" style="fill:url(#_ÂÁ_Ï_ÌÌ_È_ËÂÌÚ_44-2); mix-blend-mode:screen; opacity:.5; stroke-width:0px;"/><path d="M442.5,228.84c-4.4,1.48-40.27-39.72-34.43-114.09,0,0,10.5-5.66,23.04,14.1l.02.04c1.6,2.52,3.04,5.99,4.34,10.15,8.89,28.44,10.85,88.52,7.03,89.81Z" style="fill:url(#_ÂÁ_Ï_ÌÌ_È_ËÂÌÚ_44-3); fill-rule:evenodd; mix-blend-mode:screen; opacity:.5; stroke-width:0px;"/><path d="M424.02,241.16c-1.03,1.91-2.67,3.5-3.32,3.03-.6-.44.14-2.37,1.31-3.95.94-1.26,1.94-1.99,2.42-1.84.5.16.39,1.28-.41,2.76Z" style="fill:url(#_ÂÁ_Ï_ÌÌ_È_ËÂÌÚ_39-2); mix-blend-mode:multiply; opacity:.4; stroke-width:0px;"/><ellipse cx="425.8" cy="238.93" rx="2.11" ry=".86" transform="translate(-.9 1.62) rotate(-.22)" style="fill:url(#_ÂÁ_Ï_ÌÌ_È_ËÂÌÚ_365-7); stroke-width:0px;"/><path d="M429.13,238.7c0,1.16-.94,2.11-2.1,2.12s-2.11-.94-2.12-2.1.94-2.11,2.1-2.12,2.11.94,2.12,2.1Z" style="fill:#ffab50; stroke-width:0px;"/><path d="M426.58,236.79c1.26,2.89,2.27,1.3,2.08.75s-1.29-1.05-2.08-.75Z" style="fill:url(#_ÂÁ_Ï_ÌÌ_È_ËÂÌÚ_44-4); mix-blend-mode:screen; opacity:.5; stroke-width:0px;"/><path d="M392.24,166.81c-1.03,1.91-2.67,3.5-3.32,3.03-.6-.44.14-2.37,1.31-3.95.94-1.26,1.94-1.99,2.42-1.84.5.16.39,1.28-.41,2.76Z" style="fill:url(#_ÂÁ_Ï_ÌÌ_È_ËÂÌÚ_39-3); mix-blend-mode:multiply; opacity:.4; stroke-width:0px;"/><path d="M396.13,164.57c0,.48-.94.86-2.11.87s-2.11-.38-2.11-.85.94-.86,2.11-.87,2.11.38,2.11.85Z" style="fill:url(#_ÂÁ_Ï_ÌÌ_È_ËÂÌÚ_365-8); stroke-width:0px;"/><circle cx="395.24" cy="164.35" r="2.11" style="fill:#ffab50; stroke-width:0px;"/><path d="M394.8,162.44c1.26,2.89,2.27,1.3,2.08.75-.19-.55-1.29-1.05-2.08-.75Z" style="fill:url(#_ÂÁ_Ï_ÌÌ_È_ËÂÌÚ_44-5); mix-blend-mode:screen; opacity:.5; stroke-width:0px;"/><path d="M412,166.74c-1.03,1.91-2.67,3.5-3.32,3.03-.6-.44.14-2.37,1.31-3.95.94-1.26,1.94-1.99,2.42-1.84.5.16.39,1.28-.41,2.76Z" style="fill:url(#_ÂÁ_Ï_ÌÌ_È_ËÂÌÚ_39-4); mix-blend-mode:multiply; opacity:.4; stroke-width:0px;"/><ellipse cx="413.78" cy="164.5" rx="2.11" ry=".86" transform="translate(-.62 1.57) rotate(-.22)" style="fill:url(#_ÂÁ_Ï_ÌÌ_È_ËÂÌÚ_365-9); stroke-width:0px;"/><circle cx="415" cy="164.28" r="2.11" style="fill:#ffab50; stroke-width:0px;"/><path d="M414.56,162.36c1.26,2.89,2.27,1.3,2.08.75-.19-.55-1.29-1.05-2.08-.75Z" style="fill:url(#_ÂÁ_Ï_ÌÌ_È_ËÂÌÚ_44-6); mix-blend-mode:screen; opacity:.5; stroke-width:0px;"/><path d="M400.28,173.64s-12.28-49.67-19.8-54.86c-7.52-5.19-20.71,34.13-20.71,34.13l-.03-8.15s14.63-33.62,21.84-29.57c6.18,3.46,19.3,44.42,19.3,44.42l-.6,14.02Z" style="fill:url(#_ÂÁ_Ï_ÌÌ_È_ËÂÌÚ_39-5); mix-blend-mode:multiply; opacity:.2; stroke-width:0px;"/><path d="M393.97,207.38s-3.28-58.81-13.17-64.8c-9.89-5.99-20.81,46.84-20.81,46.84l-.06,7.69s10.92-55.15,21.08-51.28c10.16,3.87,11.76,78.98,11.76,78.98l1.18-17.44Z" style="fill:url(#_ÂÁ_Ï_ÌÌ_È_ËÂÌÚ_39-6); mix-blend-mode:multiply; opacity:.2; stroke-width:0px;"/><path d="M398.61,133.97c-3.91-26.45-11.55-36.74-11.55-36.74,0,0,10.28,14.24,13.68,28.13,3.4,13.88-.17,21.52-.17,21.52l-1.96-12.9Z" style="fill:url(#_ÂÁ_Ï_ÌÌ_È_ËÂÌÚ_39-7); mix-blend-mode:multiply; opacity:.2; stroke-width:0px;"/><path d="M392.64,145.99c7.12,7.8,4.45,13.8,4.45,13.8l-4.45-13.8Z" style="fill:url(#_ÂÁ_Ï_ÌÌ_È_ËÂÌÚ_39-8); mix-blend-mode:multiply; opacity:.2; stroke-width:0px;"/><path d="M409.24,171.98c10.73,56.46,35.73,71.52,35.73,71.52l-.26-5.14c-24.01-10.43-35.47-66.39-35.47-66.39Z" style="fill:url(#_ÂÁ_Ï_ÌÌ_È_ËÂÌÚ_39-9); mix-blend-mode:multiply; opacity:.2; stroke-width:0px;"/><path d="M391.88,219.07c.11,1.91.19,3.74.24,5.48l-.24-5.48Z" style="fill:url(#_ÂÁ_Ï_ÌÌ_È_ËÂÌÚ_39-10); mix-blend-mode:multiply; opacity:.2; stroke-width:0px;"/><path d="M393.5,256.17l-4.75.02c1.27-3.48,3.91-13.07,3.38-31.64l1,22.96.38,8.67Z" style="fill:url(#_ÂÁ_Ï_ÌÌ_È_ËÂÌÚ_39-11); mix-blend-mode:multiply; opacity:.2; stroke-width:0px;"/><path d="M406.04,107.82l-2.88-5.64c-.02-.26-.04-.52-.06-.78l2.94,6.42Z" style="fill:url(#_ÂÁ_Ï_ÌÌ_È_ËÂÌÚ_39-12); mix-blend-mode:multiply; opacity:.2; stroke-width:0px;"/><path d="M445.56,201.35s-9.21-27.87-12.29-80.7c3.07,40.83,9.64,65.58,12.15,73.88l.15,6.83Z" style="fill:url(#_ÂÁ_Ï_ÌÌ_È_ËÂÌÚ_39-13); mix-blend-mode:multiply; opacity:.2; stroke-width:0px;"/><path d="M405.59,120.76c-1.61-6.64-2.89-13.71-3.76-21.19l1.33,2.62c.5,6.5,1.33,12.7,2.43,18.57Z" style="fill:url(#_ÂÁ_Ï_ÌÌ_È_ËÂÌÚ_39-14); mix-blend-mode:multiply; opacity:.2; stroke-width:0px;"/><path d="M424.63,101.78c14.7,7.43,22.24,60.89,22.24,60.89,0,0,.99-28.4-5.92-45.54-6.91-17.14-16.32-15.35-16.32-15.35Z" style="fill:url(#_ÂÁ_Ï_ÌÌ_È_ËÂÌÚ_39-15); mix-blend-mode:multiply; opacity:.2; stroke-width:0px;"/><path d="M393.5,256.17h-1.77c-.02-1.46.06-5.5,1.39-8.67,0-.02,0-.03.02-.05l.36,8.72Z" style="fill:url(#_ÂÁ_Ï_ÌÌ_È_ËÂÌÚ_39-16); mix-blend-mode:multiply; opacity:.2; stroke-width:0px;"/><path d="M405.85,174.66l-.03.26c-.68,5.4-4.46,54.24,13.77,81.03l-4.28.02c-18.48-33.79-10.28-75.75-9.51-81.05.02-.1.03-.19.05-.26Z" style="fill:url(#_ÂÁ_Ï_ÌÌ_È_ËÂÌÚ_39-17); mix-blend-mode:multiply; opacity:.2; stroke-width:0px;"/><polygon points="395.84 98.25 386.38 98.13 384.76 95 394.25 95.02 395.84 98.25" style="fill:url(#_ÂÁ_Ï_ÌÌ_È_ËÂÌÚ_39-18); mix-blend-mode:multiply; opacity:.35; stroke-width:0px;"/><polygon points="410.1 98.11 407.09 95.06 407.88 95.06 410.1 98.11" style="fill:url(#_ÂÁ_Ï_ÌÌ_È_ËÂÌÚ_39-19); mix-blend-mode:multiply; opacity:.35; stroke-width:0px;"/><path d="M359.49,177.05l-2.96-4.13-.17-12.21c2.87,3.42,3.45,5.71,3.45,5.71l-.32,10.63Z" style="fill:url(#_ÂÁ_Ï_ÌÌ_È_ËÂÌÚ_39-20); mix-blend-mode:multiply; opacity:.35; stroke-width:0px;"/><polygon points="359.99 189.42 356.73 186.61 356.72 185.34 359.99 189.42" style="fill:url(#_ÂÁ_Ï_ÌÌ_È_ËÂÌÚ_39-21); mix-blend-mode:multiply; opacity:.35; stroke-width:0px;"/><polygon points="449.61 198.99 449.45 205.09 447.16 202.38 445.53 200.47 445.42 200.33 445.51 199.25 445.78 196.05 447.29 197.21 449.61 198.99" style="fill:url(#_ÂÁ_Ï_ÌÌ_È_ËÂÌÚ_39-22); mix-blend-mode:multiply; opacity:.35; stroke-width:0px;"/><path d="M450.84,152.16v.02s-.75,28.43-.75,28.43l-.45-.69c-.56-.87-1.17-1.84-1.83-2.91-.58-.95-1.2-1.98-1.86-3.1-.04-.08-.09-.15-.13-.23l.39-15.24v-.02s.3-11.98.3-11.98l.47-18.49s.68,3.95,1.8,10.91v.02c.58,3.65,1.28,8.13,2.06,13.28Z" style="fill:url(#_ÂÁ_Ï_ÌÌ_È_ËÂÌÚ_39-23); mix-blend-mode:multiply; opacity:.35; stroke-width:0px;"/><polygon points="448.6 237.84 448.32 248.2 446.06 245.34 444.19 242.96 444.17 242.93 444.22 238.13 444.22 237.8 446.26 237.81 448.6 237.84" style="fill:url(#_ÂÁ_Ï_ÌÌ_È_ËÂÌÚ_39-24); mix-blend-mode:multiply; opacity:.35; stroke-width:0px;"/><polygon points="446.25 159.61 450.33 170.97 450.09 180.61 445.94 174.41 446.25 159.61" style="fill:url(#_ÂÁ_Ï_ÌÌ_È_ËÂÌÚ_39-25); mix-blend-mode:multiply; opacity:.35; stroke-width:0px;"/><polygon points="409.16 256.11 410.8 258.63 421.07 258.67 419.59 255.95 409.16 256.11" style="fill:url(#_ÂÁ_Ï_ÌÌ_È_ËÂÌÚ_39-26); mix-blend-mode:multiply; opacity:.2; stroke-width:0px;"/><path d="M424.18,255.93c1.47,1.46,5.7,2.73,5.7,2.73h1.65s-5.82-2.61-5.82-2.61l-1.53-.12Z" style="fill:url(#_ÂÁ_Ï_ÌÌ_È_ËÂÌÚ_39-27); mix-blend-mode:multiply; opacity:.2; stroke-width:0px;"/><path d="M357.62,248.71l-.07-4.7c2.65-3.03,3.02-9.07,3.02-9.07,0,0,.28,9.68-2.96,13.78Z" style="fill:url(#_ÂÁ_Ï_ÌÌ_È_ËÂÌÚ_39-28); fill-rule:evenodd; mix-blend-mode:multiply; opacity:.2; stroke-width:0px;"/><polygon points="360.87 250.59 357.7 254.42 357.68 253.13 360.87 250.59" style="fill:url(#_ÂÁ_Ï_ÌÌ_È_ËÂÌÚ_39-29); fill-rule:evenodd; mix-blend-mode:multiply; opacity:.2; stroke-width:0px;"/><path d="M358.73,105.16c57.86-5.6,86.62,1.46,86.62,1.46l-2.2,149.36h2.65s4.01-157.55,4.01-157.55l-91.23-.27.15,6.99Z" style="fill:url(#_ÂÁ_Ï_ÌÌ_È_ËÂÌÚ_39-30); fill-rule:evenodd; mix-blend-mode:multiply; opacity:.4; stroke-width:0px;"/><polygon points="359.28 259.44 359.29 260.41 347.39 260.46 347.38 258.19 345.83 258.18 345.24 235.27 344.88 220.84 344.59 209.35 344.21 194.46 341.81 99.96 355.51 94.31 356.45 160.1 356.56 167.33 356.56 167.42 356.62 172.32 356.64 173 356.81 184.73 356.82 186 357.64 243.4 357.71 248.1 357.77 252.52 357.79 253.81 357.82 255.95 357.84 256.85 357.85 258.18 359.28 259.44" style="fill:url(#_ÂÁ_Ï_ÌÌ_È_ËÂÌÚ_39-31); fill-rule:evenodd; mix-blend-mode:multiply; opacity:.4; stroke-width:0px;"/><path d="M352.96,205.29l-7.81,30.6-.36-14.43c3.2-11.27,8.17-16.16,8.17-16.16Z" style="fill:url(#_ÂÁ_Ï_ÌÌ_È_ËÂÌÚ_39-32); mix-blend-mode:multiply; opacity:.37; stroke-width:0px;"/><path d="M356.67,173.4s-.04.07-.12.21c-.94,1.6-7.08,12.67-12.05,36.35l-.38-14.88c5.65-20.33,12.09-33.74,12.09-33.74l.25,6.61v.09s.19,5.07.19,5.07v.3Z" style="fill:url(#_ÂÁ_Ï_ÌÌ_È_ËÂÌÚ_39-33); mix-blend-mode:multiply; opacity:.37; stroke-width:0px;"/><path d="M410.28,187.46c9.36,16.41,13.36,40.06,12.87,39.9-.49-.16-13.2.54-13.2.54,0,0-6.07-51.66.34-40.44Z" style="fill:url(#_ÂÁ_Ï_ÌÌ_È_ËÂÌÚ_44-7); fill-rule:evenodd; mix-blend-mode:screen; opacity:.5; stroke-width:0px;"/><path d="M434.48,139.04c-1.84-1.47-5.58-5.37-6.82-13.6l2.47,3.41.02.04c1.6,2.52,3.04,5.99,4.34,10.15Z" style="fill:url(#_ÂÁ_Ï_ÌÌ_È_ËÂÌÚ_44-8); mix-blend-mode:screen; opacity:.5; stroke-width:0px;"/><path d="M452.32,95.61l-1.48,56.55v.02s-.75,28.43-.75,28.43h0s-.48,18.38-.48,18.38l-.16,6.1-.86,32.74-.28,10.36-.26,10.25-34.66.13v-.37s-.03-.99-.03-.99v-.61s-.42-25.67-.42-25.67v-.47s-.92-57.03-.92-57.03l-.27-16.5-.25-16.04-.33-20.02-.28-17.42-.03-1.44-.05-3.28-.05-3.25,8.23.03h.79s32.52.08,32.52.08Z" style="fill:url(#_ÂÁ_Ï_ÌÌ_È_ËÂÌÚ_39-34); mix-blend-mode:multiply; opacity:.64; stroke-width:0px;"/><path d="M587.05,155.66c-2.05,20.33-11.35,35.12-22.6,44.82-7.9,6.8-16.76,11.1-24.78,13.04-8.59,1.91-16.15,1.23-20.52-1.85-6.88-4.86,2.45-12.3,9.22-21.21,5.41-7.13,9.18-15.2,1.66-23.63-3.01-3.38-7.86-6.82-15.13-10.29-2.14-1.02-4.09-3.16-5.72-6.1-.02-.05-.05-.11-.09-.16-5.68-10.4-7.58-30.57-1.1-46.96,2.4-6.1,5.97-11.68,10.92-16.04.18-.15.35-.31.53-.45.29-.27.59-.51.9-.75.31-.25.62-.5.95-.73.34-.25.68-.5,1.04-.73,1.14-.78,2.34-1.5,3.6-2.16,1.57-.82,3.15-1.5,4.74-2.06.21-.07.42-.15.63-.21,29.62-9.4,60.5,28.51,55.74,75.46Z" style="fill:#d9658b; mix-blend-mode:multiply; opacity:.5; stroke-width:0px;"/><path d="M586.02,152.04c-2.05,20.3-11.35,35.07-22.61,44.76-7.89,6.79-16.76,11.08-24.78,13.03-3.22.78-6.31,1.18-9.13,1.21-4.57-.04-8.44-1.02-11.12-2.91-6.88-4.86,2.45-12.3,9.21-21.21,5.34-7.05,9.1-15.02,1.92-23.33-.08-.1-.17-.2-.25-.3-3.02-3.38-7.86-6.82-15.13-10.28-1.05-.5-2.05-1.27-2.99-2.27-.98-1.03-1.9-2.33-2.74-3.83-.02-.06-.05-.11-.08-.17-5.68-10.4-7.59-30.56-1.1-46.96,2.4-6.1,5.97-11.68,10.93-16.04.18-.15.36-.32.53-.45.3-.27.59-.52.9-.75.3-.25.62-.5.95-.73.33-.25.68-.49,1.03-.73,1.14-.78,2.34-1.5,3.6-2.16,1.57-.83,3.15-1.5,4.74-2.06.21-.07.42-.15.64-.21.38-.12.76-.23,1.14-.34.67-.19,1.34-.35,2.01-.48.25-.05.5-.1.74-.14,28.28-4.81,56.12,31.67,51.59,76.35Z" style="fill:url(#_ÂÁ_Ï_ÌÌ_È_ËÂÌÚ_690-2); stroke-width:0px;"/><path d="M587.98,151.69c-2.14,20.42-11.8,35.24-23.47,44.9-8.27,6.86-17.55,11.12-25.87,12.97,8.02-1.94,16.88-6.23,24.78-13.01,11.26-9.67,20.55-24.43,22.6-44.69,4.76-46.81-26.13-84.61-55.74-75.23,30.54-9.95,62.62,27.99,57.7,75.07Z" style="fill:url(#_ÂÁ_Ï_ÌÌ_È_ËÂÌÚ_365-10); stroke-width:0px;"/><path d="M533.82,101.27l-2.38,34.49h0s-1.93,27.82-1.93,27.82c-.08-.1-.17-.2-.25-.3-3.02-3.38-7.86-6.82-15.13-10.28-1.05-.5-2.05-1.27-2.99-2.27-.88-1.03-1.72-2.3-2.47-3.73-.02-.05-.05-.1-.09-.17-5.67-10.55-7.58-31.01-1.1-47.63h.17s15.74,1.26,15.74,1.26l10.43.82Z" style="fill:#c61e9b; mix-blend-mode:multiply; opacity:.3; stroke-width:0px;"/><path d="M564.51,196.61c-8.27,6.97-17.55,11.31-25.87,13.19-8.65,2.14-16.31,1.5-20.69-1.72-6.85-5.03,2.8-12.81,9.41-22.11l-.03.43-.7,10.13c14.64-.46,26.84-.35,36.78.03.37.01.73.03,1.1.04Z" style="fill:#c61e9b; mix-blend-mode:multiply; opacity:.3; stroke-width:0px;"/><path d="M523.51,81.9c-5.16,93.25,56.22,75.16,56.22,75.16,0,0,10.59-46.26-11.81-66.66-22.4-20.4-44.41-8.5-44.41-8.5Z" style="fill:url(#_ÂÁ_Ï_ÌÌ_È_ËÂÌÚ_285); mix-blend-mode:screen; opacity:.68; stroke-width:0px;"/><path d="M525.82,136.81c11.54,4.58,10.1,15.23,6.27,17.01-3.83,1.79-15.32-14.91-11.98-16.3,3.34-1.39,5.71-.71,5.71-.71Z" style="fill:url(#_ÂÁ_Ï_ÌÌ_È_ËÂÌÚ_285-2); mix-blend-mode:screen; opacity:.68; stroke-width:0px;"/><path d="M493.67,266.26s-48.48,1.77-77.66.23c0,0,1.33-.1,3.69-.24-6.98-.18-14.05-.61-20.04-1.47,0,0,13,.36,21.26.08,2.87-.1,7.59-.03,12.52.1-4.27-.67-6.35-1.5-1.44-2.37l39.75,3.11c12.2.25,21.93.56,21.93.56Z" style="fill:url(#_ÂÁ_Ï_ÌÌ_È_ËÂÌÚ_28-4); mix-blend-mode:multiply; opacity:.9; stroke-width:0px;"/><path d="M452.47,221.55c16.6,15.68,12.26,3.41,12.26,3.41,0,0-7.11-8.35-8.51-20.51-1.4-12.16-.24-23.11-.24-23.11,0,0,13.92,33.77,15.93,40.69,2.01,6.92,2.26,8.97,2.26,8.97,0,0-.11-16.95,1.89-25.37,2-8.42,3.9-20.09,3.9-20.09,0,0,1.09,17.31.48,33.49s-1.12,24-1.12,24l14.03-5.12-4.01,7.39s-10.83,1.4-12.14,5.21c-1.31,3.81-20.82-16.72-20.82-16.72l-3.92-12.23Z" style="fill:url(#_ÂÁ_Ï_ÌÌ_È_ËÂÌÚ_38); fill-rule:evenodd; stroke-width:0px;"/><path d="M490.48,191.81c4.52,36.54,1.66,39.68-3.35,44.91-5.01,5.24-10.56,17.15-10.2,14.93.35-2.23-2.78-15.67,1.24-29.76,4.02-14.09,12.3-30.08,12.3-30.08Z" style="fill:url(#_ÂÁ_Ï_ÌÌ_È_ËÂÌÚ_62); fill-rule:evenodd; stroke-width:0px;"/><path d="M484.38,201.41c-1.16,5.39-2.88,9.59-4.23,12.38-1.11,2.29-1.98,3.64-2.1,3.93.18-1.19.91-22.6,3.33-28.2,2.5-5.79,2.92-13.43,2.92-13.43,2.12,10.03,1.54,18.64.09,25.32Z" style="fill:url(#_ÂÁ_Ï_ÌÌ_È_ËÂÌÚ_7); fill-rule:evenodd; stroke-width:0px;"/><path d="M475.19,235.02s-8.09-16.47-12.61-25.68c0,0-.02-.02-.02-.04-.34-.7-.66-1.35-.96-1.95-4.2-8.55-1.95-29.3-1.95-29.3,5.16,6.47,8.7,13.4,11.09,20.13,6.88,19.27,4.45,36.84,4.45,36.84Z" style="fill:url(#_ÂÁ_Ï_ÌÌ_È_ËÂÌÚ_7-2); fill-rule:evenodd; stroke-width:0px;"/><path d="M506.2,233.79s-6.6,10.11-13.86,10.78c-7.25.67-10.61,2.31-10.61,2.31,5.72-13.93,24.46-13.09,24.46-13.09Z" style="fill:url(#_ÂÁ_Ï_ÌÌ_È_ËÂÌÚ_62-2); fill-rule:evenodd; stroke-width:0px;"/><path d="M475.19,235.02s-8.09-16.47-12.61-25.68c3.4,5.98,7.25,11.82,9.01,14.41,2.24,3.29.52-13.93-.85-25.57,6.88,19.27,4.45,36.84,4.45,36.84Z" style="fill:url(#_ÂÁ_Ï_ÌÌ_È_ËÂÌÚ_246); fill-rule:evenodd; mix-blend-mode:multiply; opacity:.35; stroke-width:0px;"/><path d="M477.18,251.33c.51-23.78,11.9-51.75,11.9-51.75,0,0-7.19,19.38-7.77,27.39-.58,8.01,11.34-6.1,11.34-6.1l.02,1.46s-12.55,9.39-13.47,15.24c-.93,5.84-2.03,13.76-2.03,13.76Z" style="fill:url(#_ÂÁ_Ï_ÌÌ_È_ËÂÌÚ_246-2); fill-rule:evenodd; mix-blend-mode:multiply; opacity:.35; stroke-width:0px;"/><path d="M460.81,181.22c4.5,27.45,13.72,51.18,13.72,51.18l-13.72-51.18Z" style="fill:url(#_ÂÁ_Ï_ÌÌ_È_ËÂÌÚ_246-3); fill-rule:evenodd; mix-blend-mode:multiply; opacity:.35; stroke-width:0px;"/><path d="M489.06,198.88c-1.88,3.75,1.71,8.72,1.7,7.7s-.75-9.6-1.7-7.7Z" style="fill:url(#_ÂÁ_Ï_ÌÌ_È_ËÂÌÚ_407); fill-rule:evenodd; mix-blend-mode:screen; opacity:.9; stroke-width:0px;"/><path d="M492.3,265.73c-.72.06-1.47.11-2.26.16-2.93.19-6.27.32-9.96.34-2.18.02-4.49-.01-6.91-.09-3.42-.11-7.06-.32-10.88-.67-.18-.01-.37-.03-.55-.05l2.82-17.03,24.52-.09,3.22,17.44Z" style="fill:url(#_ÂÁ_Ï_ÌÌ_È_ËÂÌÚ_34-2); stroke-width:0px;"/><path d="M472.81,266.14c-3.42-.11-7.06-.32-10.88-.67l3.21-17.08,7.4-.03.26,17.78Z" style="fill:url(#_ÂÁ_Ï_ÌÌ_È_ËÂÌÚ_28-5); mix-blend-mode:multiply; opacity:.9; stroke-width:0px;"/><path d="M490.04,265.89c-2.93.19-6.27.32-9.96.34-1.98-21.3,8.57-21.24,9.96-.34Z" style="fill:url(#_ÂÁ_Ï_ÌÌ_È_ËÂÌÚ_407-2); mix-blend-mode:screen; opacity:.75; stroke-width:0px;"/><path d="M482.18,248.32c1.84,4.87,1.89,0,1.89,0h-1.89Z" style="fill:#fff; stroke-width:0px;"/><path d="M448.13,215.74c13.34,20.44,25.81,29.04,25.81,29.04,0,0-15.75-5.22-21.64-13.05-5.89-7.82-4.17-15.99-4.17-15.99Z" style="fill:url(#_ÂÁ_Ï_ÌÌ_È_ËÂÌÚ_7-3); fill-rule:evenodd; stroke-width:0px;"/><polygon points="528.21 291.07 498.56 283.02 682.12 279.26 685.76 290.22 528.21 291.07" style="fill:url(#_ÂÁ_Ï_ÌÌ_È_ËÂÌÚ_2-2); stroke-width:0px;"/></g></g></g></svg>